<svg width="20" height="20" viewBox="0 0 20 20" fill="none" xmlns="http://www.w3.org/2000/svg">
<path d="M15 20C13.6167 20 12.4375 19.5125 11.4625 18.5375C10.4875 17.5625 10 16.3833 10 15C10 13.6167 10.4875 12.4375 11.4625 11.4625C12.4375 10.4875 13.6167 10 15 10C16.3833 10 17.5625 10.4875 18.5375 11.4625C19.5125 12.4375 20 13.6167 20 15C20 16.3833 19.5125 17.5625 18.5375 18.5375C17.5625 19.5125 16.3833 20 15 20ZM5 6H13C13.2833 6 13.5208 5.90417 13.7125 5.7125C13.9042 5.52083 14 5.28333 14 5C14 4.71667 13.9042 4.47917 13.7125 4.2875C13.5208 4.09583 13.2833 4 13 4H5C4.71667 4 4.47917 4.09583 4.2875 4.2875C4.09583 4.47917 4 4.71667 4 5C4 5.28333 4.09583 5.52083 4.2875 5.7125C4.47917 5.90417 4.71667 6 5 6ZM2 18C1.45 18 0.979167 17.8042 0.5875 17.4125C0.195833 17.0208 0 16.55 0 16V2C0 1.45 0.195833 0.979167 0.5875 0.5875C0.979167 0.195833 1.45 0 2 0H16C16.55 0 17.0208 0.195833 17.4125 0.5875C17.8042 0.979167 18 1.45 18 2V7.45C18 7.75 17.875 7.98333 17.625 8.15C17.375 8.31667 17.1083 8.35 16.825 8.25C16.5417 8.16667 16.2458 8.10417 15.9375 8.0625C15.6292 8.02083 15.3167 8 15 8C14.8167 8 14.6458 8.00417 14.4875 8.0125C14.3292 8.02083 14.1667 8.04167 14 8.075C13.85 8.04167 13.6833 8.02083 13.5 8.0125C13.3167 8.00417 13.15 8 13 8H5C4.71667 8 4.47917 8.09583 4.2875 8.2875C4.09583 8.47917 4 8.71667 4 9C4 9.28333 4.09583 9.52083 4.2875 9.7125C4.47917 9.90417 4.71667 10 5 10H10.125C9.825 10.2833 9.55417 10.5917 9.3125 10.925C9.07083 11.2583 8.85833 11.6167 8.675 12H5C4.71667 12 4.47917 12.0958 4.2875 12.2875C4.09583 12.4792 4 12.7167 4 13C4 13.2833 4.09583 13.5208 4.2875 13.7125C4.47917 13.9042 4.71667 14 5 14H8.075C8.04167 14.1667 8.02083 14.3292 8.0125 14.4875C8.00417 14.6458 8 14.8167 8 15C8 15.3333 8.01667 15.65 8.05 15.95C8.08333 16.25 8.14167 16.5417 8.225 16.825C8.30833 17.1083 8.26667 17.375 8.1 17.625C7.93333 17.875 7.70833 18 7.425 18H2ZM15 15C15.4167 15 15.7708 14.8542 16.0625 14.5625C16.3542 14.2708 16.5 13.9167 16.5 13.5C16.5 13.0833 16.3542 12.7292 16.0625 12.4375C15.7708 12.1458 15.4167 12 15 12C14.5833 12 14.2292 12.1458 13.9375 12.4375C13.6458 12.7292 13.5 13.0833 13.5 13.5C13.5 13.9167 13.6458 14.2708 13.9375 14.5625C14.2292 14.8542 14.5833 15 15 15ZM15 18C15.4167 18 15.8083 17.9208 16.175 17.7625C16.5417 17.6042 16.8667 17.375 17.15 17.075C17.2333 16.975 17.2667 16.8625 17.25 16.7375C17.2333 16.6125 17.1583 16.5167 17.025 16.45C16.7083 16.3 16.3792 16.1875 16.0375 16.1125C15.6958 16.0375 15.35 16 15 16C14.65 16 14.3042 16.0375 13.9625 16.1125C13.6208 16.1875 13.2917 16.3 12.975 16.45C12.8417 16.5 12.7667 16.5917 12.75 16.725C12.7333 16.8583 12.7667 16.975 12.85 17.075C13.1333 17.375 13.4583 17.6042 13.825 17.7625C14.1917 17.9208 14.5833 18 15 18Z" fill="#EC7063"/>
</svg>
