<svg width="60" height="60" viewBox="0 0 60 60" fill="none" xmlns="http://www.w3.org/2000/svg">
	<path d="M9 17.25C9 15.062 9.86919 12.9635 11.4164 11.4164C12.9635 9.86919 15.062 9 17.25 9H42.75C44.938 9 47.0365 9.86919 48.5836 11.4164C50.1308 12.9635 51 15.062 51 17.25V42.75C51 44.938 50.1308 47.0365 48.5836 48.5836C47.0365 50.1308 44.938 51 42.75 51H30.363L25.683 46.32C26.3334 44.9592 26.7512 43.4989 26.919 42H40.5C40.8978 42 41.2794 41.842 41.5607 41.5607C41.842 41.2794 42 40.8978 42 40.5C42 40.1022 41.842 39.7206 41.5607 39.4393C41.2794 39.158 40.8978 39 40.5 39H26.919C26.6938 36.9791 26.015 35.0353 24.9333 33.3135C23.8516 31.5917 22.3949 30.1365 20.672 29.0566C18.9491 27.9767 17.0045 27.2998 14.9835 27.0767C12.9624 26.8536 10.917 27.0899 9 27.768V17.25ZM20.25 24C20.8467 24 21.419 23.7629 21.841 23.341C22.2629 22.919 22.5 22.3467 22.5 21.75C22.5 21.1533 22.2629 20.581 21.841 20.159C21.419 19.7371 20.8467 19.5 20.25 19.5C19.6533 19.5 19.081 19.7371 18.659 20.159C18.2371 20.581 18 21.1533 18 21.75C18 22.3467 18.2371 22.919 18.659 23.341C19.081 23.7629 19.6533 24 20.25 24ZM27 22.5C27 22.8978 27.158 23.2794 27.4393 23.5607C27.7206 23.842 28.1022 24 28.5 24H40.5C40.8978 24 41.2794 23.842 41.5607 23.5607C41.842 23.2794 42 22.8978 42 22.5C42 22.1022 41.842 21.7206 41.5607 21.4393C41.2794 21.158 40.8978 21 40.5 21H28.5C28.1022 21 27.7206 21.158 27.4393 21.4393C27.158 21.7206 27 22.1022 27 22.5ZM28.5 30C28.1022 30 27.7206 30.158 27.4393 30.4393C27.158 30.7206 27 31.1022 27 31.5C27 31.8978 27.158 32.2794 27.4393 32.5607C27.7206 32.842 28.1022 33 28.5 33H40.5C40.8978 33 41.2794 32.842 41.5607 32.5607C41.842 32.2794 42 31.8978 42 31.5C42 31.1022 41.842 30.7206 41.5607 30.4393C41.2794 30.158 40.8978 30 40.5 30H28.5Z" fill="#007bff" />
	<path d="M13.4999 51C15.8579 51 18.0359 50.22 19.7879 48.909L27.4379 56.559C27.5772 56.6985 27.7426 56.8091 27.9246 56.8847C28.1066 56.9602 28.3018 56.9992 28.4989 56.9993C28.696 56.9995 28.8911 56.9608 29.0733 56.8855C29.2554 56.8102 29.421 56.6998 29.5604 56.5605C29.6999 56.4212 29.8106 56.2559 29.8861 56.0738C29.9617 55.8918 30.0006 55.6967 30.0008 55.4996C30.0009 55.3025 29.9622 55.1073 29.8869 54.9251C29.8116 54.743 29.7012 54.5775 29.5619 54.438L21.9119 46.788C23.328 44.8943 24.0634 42.5781 23.9991 40.2145C23.9347 37.8508 23.0745 35.578 21.5576 33.7641C20.0407 31.9502 17.956 30.7015 15.6409 30.22C13.3259 29.7385 10.9162 30.0525 8.80184 31.1112C6.68752 32.1699 4.99243 33.9112 3.99103 36.0533C2.98964 38.1953 2.74058 40.6126 3.28417 42.9139C3.82776 45.2151 5.13218 47.2655 6.98622 48.733C8.84026 50.2006 11.1354 50.9993 13.4999 51ZM13.4999 48C11.5108 48 9.60315 47.2098 8.19662 45.8033C6.7901 44.3968 5.99993 42.4891 5.99993 40.5C5.99993 38.5109 6.7901 36.6032 8.19662 35.1967C9.60315 33.7902 11.5108 33 13.4999 33C15.489 33 17.3967 33.7902 18.8032 35.1967C20.2097 36.6032 20.9999 38.5109 20.9999 40.5C20.9999 42.4891 20.2097 44.3968 18.8032 45.8033C17.3967 47.2098 15.489 48 13.4999 48Z" fill="#007bff" />
</svg>
