<?xml version="1.0" encoding="UTF-8"?>
<svg version="1.1" xmlns="http://www.w3.org/2000/svg" width="512" height="512">
	<path d="M0 0 C1.63107484 -0.00668677 1.63107484 -0.00668677 3.29510069 -0.01350862 C5.08630929 -0.01323207 5.08630929 -0.01323207 6.91370392 -0.01294994 C8.81723279 -0.01846498 8.81723279 -0.01846498 10.75921679 -0.02409142 C14.28430464 -0.03410251 17.80937546 -0.03782679 21.33447552 -0.04048073 C25.13563191 -0.04438651 28.93677486 -0.05396476 32.73792267 -0.0626936 C41.91992788 -0.08245181 51.10193418 -0.09252408 60.28395534 -0.10142139 C64.60988483 -0.10580594 68.93581311 -0.11117237 73.26174164 -0.11641026 C87.6460698 -0.13342303 102.03039721 -0.14791612 116.41473389 -0.155159 C120.14717866 -0.15706884 123.87962343 -0.15898918 127.61206818 -0.16094494 C128.53973025 -0.16142868 129.46739233 -0.16191242 130.42316538 -0.16241082 C145.44304996 -0.17070707 160.4628548 -0.19603693 175.48270458 -0.22852562 C190.90982005 -0.26162259 206.33689504 -0.2796102 221.76404619 -0.28280324 C230.42310817 -0.28496605 239.08205391 -0.29368103 247.74108124 -0.31926441 C255.11733282 -0.34100761 262.49343993 -0.34900413 269.86971992 -0.33929763 C273.63024214 -0.33476317 277.3904665 -0.33658883 281.15094757 -0.35605907 C285.23678769 -0.3770302 289.32197179 -0.36667254 293.40784454 -0.35352612 C294.58413784 -0.36449536 295.76043113 -0.37546461 296.97236967 -0.38676625 C310.85715376 -0.2792595 321.67892569 4.48615782 331.8562088 13.75922108 C341.14358136 23.41734703 343.97732648 35.16654514 343.8015213 48.07953358 C343.80232832 50.23057667 343.80499191 52.38161972 343.8093338 54.53265858 C343.80737667 57.89011043 343.79389279 61.24581724 343.74781036 64.60297108 C343.57876159 78.58866485 343.82927516 87.98395422 352.6687088 99.13422108 C366.27028799 123.77234592 366.34718356 155.99499274 358.93042755 182.29828358 C356.11918851 191.2178086 352.27681877 199.82413815 347.2312088 207.69672108 C345.45593054 210.57854135 344.60399402 212.40232518 343.7937088 215.75922108 C345.13513752 220.93330326 348.70087051 223.72436004 352.6687088 227.13422108 C353.4215213 226.81066639 354.1743338 226.4871117 354.9499588 226.15375233 C358.40742988 224.85720067 360.99787518 224.80646807 364.6687088 225.13422108 C369.08396547 227.37558227 372.65077447 230.52580364 376.3562088 233.75922108 C376.97342804 234.29265125 377.59064728 234.82608143 378.22657013 235.37567616 C381.80918825 238.48179071 385.34682474 241.63290575 388.8562088 244.82172108 C392.1695396 247.83236586 395.55812809 250.69987286 399.0437088 253.50922108 C403.59651387 257.18993954 407.90288291 261.06070756 412.1855545 265.04559803 C415.44024152 268.05619667 418.77825701 270.91176565 422.2312088 273.69672108 C442.24310659 289.91475691 442.24310659 289.91475691 445.6687088 302.13422108 C446.81334471 314.11296897 445.07835681 323.83709166 437.50074005 333.31390858 C430.73165785 340.03969175 422.30898272 343.12298873 412.9187088 343.50922108 C402.77559175 343.26892279 395.60535748 339.95742711 388.33667755 332.95453358 C383.42408692 327.76142898 378.79167848 322.33820928 374.17017365 316.88666248 C372.13321388 314.50921578 370.03060093 312.19513969 367.9187088 309.88422108 C364.91110272 306.56982822 362.04441184 303.17763025 359.2312088 299.69672108 C354.56909601 294.01277535 349.61377054 288.57378899 344.6687088 283.13422108 C344.3387088 304.25422108 344.0087088 325.37422108 343.6687088 347.13422108 C348.2887088 347.79422108 352.9087088 348.45422108 357.6687088 349.13422108 C375.77386887 354.70503956 391.43126316 365.81131675 400.9187088 382.50922108 C410.22759124 400.6463643 412.4145873 419.51019249 406.6687088 439.13422108 C403.78537637 447.94804409 399.42470809 454.91055663 393.6687088 462.13422108 C393.18659943 462.78133045 392.70449005 463.42843983 392.2077713 464.09515858 C382.61922724 476.34410793 366.46539013 484.12864598 351.36011505 486.69672108 C341.73719956 487.83721477 332.44536253 487.51315706 322.99292755 485.52093983 C318.60758422 484.79127766 314.88107751 485.70580897 310.75344372 487.16438198 C305.2979548 488.72141966 299.69039576 488.41634995 294.06295013 488.40164661 C292.79136761 488.40617773 291.51978509 488.41070884 290.20966977 488.41537726 C286.69133527 488.42758055 283.17309604 488.42734996 279.65474522 488.42498851 C275.85567908 488.42457966 272.05664321 488.43562607 268.25759125 488.44510365 C260.81823894 488.4617005 253.37891834 488.46721262 245.93954907 488.4683284 C239.89004288 488.4692796 233.84054712 488.47339351 227.79104424 488.47972965 C210.62787507 488.49733933 193.46473089 488.50656908 176.30155263 488.5050687 C175.37672051 488.50498879 174.4518884 488.50490888 173.49903107 488.50482655 C172.57306549 488.50474478 171.64709992 488.50466302 170.69307479 488.50457878 C155.69277551 488.50376621 140.69257672 488.52289747 125.6923065 488.55110328 C110.27865064 488.57985693 94.86504375 488.59364217 79.4513604 488.59191573 C70.80241062 488.59125263 62.15356616 488.59670955 53.50464058 488.61827183 C46.13943302 488.63651642 38.77437851 488.64080422 31.40915809 488.62725298 C27.65469663 488.62073948 23.90052851 488.62054698 20.14609528 488.63795948 C16.06697201 488.65668241 11.98852283 488.64409347 7.90938568 488.6286974 C6.14801528 488.64412808 6.14801528 488.64412808 4.35106164 488.65987051 C-9.5263016 488.54450637 -20.34678972 483.77747195 -30.5187912 474.50922108 C-38.41418289 466.29864409 -42.57582392 455.12715446 -42.5885601 443.84081459 C-42.59381922 442.7856119 -42.59381922 442.7856119 -42.59918457 441.70909199 C-42.60846906 439.35803091 -42.60358295 437.00721914 -42.59871674 434.65614796 C-42.60245449 432.95098949 -42.60705651 431.24583273 -42.61244738 429.54067868 C-42.62467742 424.85939026 -42.6244169 420.1781733 -42.62205863 415.49687254 C-42.62165046 410.44626459 -42.63268966 405.39567956 -42.64217377 400.34508228 C-42.65878509 390.45125747 -42.66428339 380.55745649 -42.66539852 370.6636189 C-42.66634899 362.62040642 -42.67045925 354.5772018 -42.67679977 346.53399181 C-42.69441304 323.72639606 -42.70363859 300.91881913 -42.70213883 278.11121652 C-42.70205891 276.88171086 -42.701979 275.65220519 -42.70189667 274.38544178 C-42.70181491 273.1544335 -42.70173314 271.92342522 -42.70164891 270.65511366 C-42.70083612 250.70793237 -42.71997162 230.7608266 -42.7481734 210.81366716 C-42.77690708 190.32851742 -42.79071341 169.84340451 -42.78898585 149.35823411 C-42.78832208 137.85883596 -42.7938084 126.35951698 -42.81534195 114.86013699 C-42.83356014 105.06850673 -42.83789584 95.27699153 -42.8243231 85.48535166 C-42.81779655 80.49145372 -42.81766506 75.49777647 -42.8350296 70.50389957 C-42.85077914 65.92732012 -42.84787744 61.351136 -42.83046134 56.77456608 C-42.82739558 55.12383072 -42.83100777 53.47306571 -42.84218149 51.82236532 C-42.9370575 36.80502189 -40.10155046 24.92688287 -29.9562912 13.44672108 C-21.24303252 5.7707551 -11.93573182 0.02271637 0 0 Z M-25.3312912 21.30609608 C-32.93680597 30.49609309 -34.51463408 39.85253041 -34.3937912 51.50922108 C-34.38927948 52.34066639 -34.38476776 53.1721117 -34.38011932 54.02875233 C-34.36842284 56.06394005 -34.35049055 58.09909031 -34.3312912 60.13422108 C-32.56804993 57.48935917 -31.1141134 54.81637016 -29.666008 51.99261951 C-25.81832502 44.52699342 -21.79737834 37.36417028 -15.63207245 31.52484608 C-14.10358392 30.20814821 -14.10358392 30.20814821 -14.3312912 28.13422108 C-13.43023651 27.72043201 -13.43023651 27.72043201 -12.5109787 27.29828358 C-10.06308539 26.10625231 -10.06308539 26.10625231 -7.4562912 23.50922108 C-4.03215132 20.4927169 -0.28243919 18.19901092 3.6687088 15.94672108 C4.24991486 15.61398182 4.83112091 15.28124256 5.42993927 14.9384203 C9.41528975 12.71016059 13.45472979 10.87033743 17.6687088 9.13422108 C17.6687088 8.80422108 17.6687088 8.47422108 17.6687088 8.13422108 C0.85185121 7.49493188 -13.2481253 8.18453311 -25.3312912 21.30609608 Z M283.6687088 8.13422108 C286.31357071 9.89746235 288.98655972 11.35139887 291.81031036 12.79950428 C299.27593646 16.64718725 306.4387596 20.66813393 312.2780838 26.83343983 C313.59478167 28.36192836 313.59478167 28.36192836 315.6687088 28.13422108 C315.94456818 28.7349242 316.22042755 29.33562733 316.5046463 29.95453358 C317.69667757 32.40242688 317.69667757 32.40242688 320.2937088 35.00922108 C323.31021298 38.43336095 325.60391896 42.18307309 327.8562088 46.13422108 C328.35531769 47.00603016 328.35531769 47.00603016 328.86450958 47.89545155 C331.09276929 51.88080203 332.93259245 55.92024207 334.6687088 60.13422108 C334.9987088 60.13422108 335.3287088 60.13422108 335.6687088 60.13422108 C335.9911972 43.52606851 335.67675059 30.88764609 323.79761505 18.17718983 C313.40345608 8.20261158 301.126869 7.75764949 287.43824005 8.02875233 C286.19429474 8.06355701 284.95034943 8.0983617 283.6687088 8.13422108 Z M-34.3312912 428.13422108 C-35.19246576 436.73229729 -34.57488613 442.52674131 -29.46800995 449.62250233 C-24.88313528 455.01203507 -19.69155648 459.92321336 -13.3312912 463.13422108 C-11.8462912 462.63922108 -11.8462912 462.63922108 -10.3312912 462.13422108 C-10.9500412 461.88672108 -11.5687912 461.63922108 -12.2062912 461.38422108 C-14.75404335 459.88554334 -15.05387014 458.73745036 -16.3312912 456.13422108 C-17.1975412 455.18547108 -18.0637912 454.23672108 -18.9562912 453.25922108 C-21.97279537 449.8350812 -24.26650135 446.08536907 -26.5187912 442.13422108 C-26.85153046 441.55301502 -27.18426971 440.97180897 -27.52709198 440.37299061 C-29.75535169 436.38764013 -31.59517485 432.34820009 -33.3312912 428.13422108 C-33.6612912 428.13422108 -33.9912912 428.13422108 -34.3312912 428.13422108 Z " fill="#F3F5F7" transform="translate(54.33129119873047,11.865778923034668)" />
	<path d="M0 0 C1.63107484 -0.00668677 1.63107484 -0.00668677 3.29510069 -0.01350862 C5.08630929 -0.01323207 5.08630929 -0.01323207 6.91370392 -0.01294994 C8.81723279 -0.01846498 8.81723279 -0.01846498 10.75921679 -0.02409142 C14.28430464 -0.03410251 17.80937546 -0.03782679 21.33447552 -0.04048073 C25.13563191 -0.04438651 28.93677486 -0.05396476 32.73792267 -0.0626936 C41.91992788 -0.08245181 51.10193418 -0.09252408 60.28395534 -0.10142139 C64.60988483 -0.10580594 68.93581311 -0.11117237 73.26174164 -0.11641026 C87.6460698 -0.13342303 102.03039721 -0.14791612 116.41473389 -0.155159 C120.14717866 -0.15706884 123.87962343 -0.15898918 127.61206818 -0.16094494 C128.53973025 -0.16142868 129.46739233 -0.16191242 130.42316538 -0.16241082 C145.44304996 -0.17070707 160.4628548 -0.19603693 175.48270458 -0.22852562 C190.90982005 -0.26162259 206.33689504 -0.2796102 221.76404619 -0.28280324 C230.42310817 -0.28496605 239.08205391 -0.29368103 247.74108124 -0.31926441 C255.11733282 -0.34100761 262.49343993 -0.34900413 269.86971992 -0.33929763 C273.63024214 -0.33476317 277.3904665 -0.33658883 281.15094757 -0.35605907 C285.23678769 -0.3770302 289.32197179 -0.36667254 293.40784454 -0.35352612 C294.58413784 -0.36449536 295.76043113 -0.37546461 296.97236967 -0.38676625 C310.85715376 -0.2792595 321.67892569 4.48615782 331.8562088 13.75922108 C341.14358136 23.41734703 343.97732648 35.16654514 343.8015213 48.07953358 C343.80232832 50.23057667 343.80499191 52.38161972 343.8093338 54.53265858 C343.80737667 57.89011043 343.79389279 61.24581724 343.74781036 64.60297108 C343.57876159 78.58866485 343.82927516 87.98395422 352.6687088 99.13422108 C366.27028799 123.77234592 366.34718356 155.99499274 358.93042755 182.29828358 C356.11918851 191.2178086 352.27681877 199.82413815 347.2312088 207.69672108 C345.45593054 210.57854135 344.60399402 212.40232518 343.7937088 215.75922108 C345.13513752 220.93330326 348.70087051 223.72436004 352.6687088 227.13422108 C353.4215213 226.81066639 354.1743338 226.4871117 354.9499588 226.15375233 C358.40742988 224.85720067 360.99787518 224.80646807 364.6687088 225.13422108 C369.08396547 227.37558227 372.65077447 230.52580364 376.3562088 233.75922108 C376.97342804 234.29265125 377.59064728 234.82608143 378.22657013 235.37567616 C381.80918825 238.48179071 385.34682474 241.63290575 388.8562088 244.82172108 C392.1695396 247.83236586 395.55812809 250.69987286 399.0437088 253.50922108 C403.59651387 257.18993954 407.90288291 261.06070756 412.1855545 265.04559803 C415.44024152 268.05619667 418.77825701 270.91176565 422.2312088 273.69672108 C442.24310659 289.91475691 442.24310659 289.91475691 445.6687088 302.13422108 C446.81334471 314.11296897 445.07835681 323.83709166 437.50074005 333.31390858 C430.73165785 340.03969175 422.30898272 343.12298873 412.9187088 343.50922108 C402.77559175 343.26892279 395.60535748 339.95742711 388.33667755 332.95453358 C383.42408692 327.76142898 378.79167848 322.33820928 374.17017365 316.88666248 C372.13321388 314.50921578 370.03060093 312.19513969 367.9187088 309.88422108 C364.91110272 306.56982822 362.04441184 303.17763025 359.2312088 299.69672108 C354.56909601 294.01277535 349.61377054 288.57378899 344.6687088 283.13422108 C344.3387088 304.25422108 344.0087088 325.37422108 343.6687088 347.13422108 C348.2887088 347.79422108 352.9087088 348.45422108 357.6687088 349.13422108 C375.77386887 354.70503956 391.43126316 365.81131675 400.9187088 382.50922108 C410.22759124 400.6463643 412.4145873 419.51019249 406.6687088 439.13422108 C403.78537637 447.94804409 399.42470809 454.91055663 393.6687088 462.13422108 C393.18659943 462.78133045 392.70449005 463.42843983 392.2077713 464.09515858 C382.61922724 476.34410793 366.46539013 484.12864598 351.36011505 486.69672108 C341.73719956 487.83721477 332.44536253 487.51315706 322.99292755 485.52093983 C318.60758422 484.79127766 314.88107751 485.70580897 310.75344372 487.16438198 C305.2979548 488.72141966 299.69039576 488.41634995 294.06295013 488.40164661 C292.79136761 488.40617773 291.51978509 488.41070884 290.20966977 488.41537726 C286.69133527 488.42758055 283.17309604 488.42734996 279.65474522 488.42498851 C275.85567908 488.42457966 272.05664321 488.43562607 268.25759125 488.44510365 C260.81823894 488.4617005 253.37891834 488.46721262 245.93954907 488.4683284 C239.89004288 488.4692796 233.84054712 488.47339351 227.79104424 488.47972965 C210.62787507 488.49733933 193.46473089 488.50656908 176.30155263 488.5050687 C175.37672051 488.50498879 174.4518884 488.50490888 173.49903107 488.50482655 C172.57306549 488.50474478 171.64709992 488.50466302 170.69307479 488.50457878 C155.69277551 488.50376621 140.69257672 488.52289747 125.6923065 488.55110328 C110.27865064 488.57985693 94.86504375 488.59364217 79.4513604 488.59191573 C70.80241062 488.59125263 62.15356616 488.59670955 53.50464058 488.61827183 C46.13943302 488.63651642 38.77437851 488.64080422 31.40915809 488.62725298 C27.65469663 488.62073948 23.90052851 488.62054698 20.14609528 488.63795948 C16.06697201 488.65668241 11.98852283 488.64409347 7.90938568 488.6286974 C6.14801528 488.64412808 6.14801528 488.64412808 4.35106164 488.65987051 C-9.5263016 488.54450637 -20.34678972 483.77747195 -30.5187912 474.50922108 C-38.41418289 466.29864409 -42.57582392 455.12715446 -42.5885601 443.84081459 C-42.59381922 442.7856119 -42.59381922 442.7856119 -42.59918457 441.70909199 C-42.60846906 439.35803091 -42.60358295 437.00721914 -42.59871674 434.65614796 C-42.60245449 432.95098949 -42.60705651 431.24583273 -42.61244738 429.54067868 C-42.62467742 424.85939026 -42.6244169 420.1781733 -42.62205863 415.49687254 C-42.62165046 410.44626459 -42.63268966 405.39567956 -42.64217377 400.34508228 C-42.65878509 390.45125747 -42.66428339 380.55745649 -42.66539852 370.6636189 C-42.66634899 362.62040642 -42.67045925 354.5772018 -42.67679977 346.53399181 C-42.69441304 323.72639606 -42.70363859 300.91881913 -42.70213883 278.11121652 C-42.70205891 276.88171086 -42.701979 275.65220519 -42.70189667 274.38544178 C-42.70181491 273.1544335 -42.70173314 271.92342522 -42.70164891 270.65511366 C-42.70083612 250.70793237 -42.71997162 230.7608266 -42.7481734 210.81366716 C-42.77690708 190.32851742 -42.79071341 169.84340451 -42.78898585 149.35823411 C-42.78832208 137.85883596 -42.7938084 126.35951698 -42.81534195 114.86013699 C-42.83356014 105.06850673 -42.83789584 95.27699153 -42.8243231 85.48535166 C-42.81779655 80.49145372 -42.81766506 75.49777647 -42.8350296 70.50389957 C-42.85077914 65.92732012 -42.84787744 61.351136 -42.83046134 56.77456608 C-42.82739558 55.12383072 -42.83100777 53.47306571 -42.84218149 51.82236532 C-42.9370575 36.80502189 -40.10155046 24.92688287 -29.9562912 13.44672108 C-21.24303252 5.7707551 -11.93573182 0.02271637 0 0 Z M-27.2062912 23.57172108 C-32.96478449 31.40967027 -34.45010062 39.59974587 -34.46830559 49.2080822 C-34.47095741 49.89996697 -34.47360924 50.59185175 -34.47634143 51.30470273 C-34.48399883 53.62232477 -34.48459223 55.93989352 -34.48519135 58.25752735 C-34.4892083 59.93636026 -34.49364691 61.6151922 -34.4984709 63.29402298 C-34.51041599 67.90721033 -34.51608004 72.52038723 -34.52065206 77.133587 C-34.52661588 82.10924374 -34.53822366 87.08488805 -34.54894257 92.06053638 C-34.57344701 104.0759952 -34.58808998 116.09145812 -34.60100263 128.10693422 C-34.60471571 131.50125819 -34.60868884 134.89558175 -34.6127553 138.28990531 C-34.63799078 159.37434402 -34.66004086 180.4587834 -34.67248344 201.54323387 C-34.67541307 206.42520684 -34.67837474 211.3071798 -34.68138885 216.18915272 C-34.68213491 217.4025205 -34.68288096 218.61588828 -34.68364961 219.86602478 C-34.69630315 239.52161219 -34.72952767 259.17710913 -34.77119069 278.83265425 C-34.81362628 299.01831908 -34.83718027 319.20393762 -34.84240401 339.38964695 C-34.84581604 350.72088822 -34.85754712 362.05198806 -34.89050674 373.38318539 C-34.91853053 383.03318695 -34.92949624 392.68301808 -34.91831128 402.33305717 C-34.91313086 407.25421817 -34.91597157 412.17502235 -34.94077682 417.09613132 C-34.96332634 421.60748672 -34.96248536 426.11823017 -34.94357295 430.6295967 C-34.94078095 432.25548752 -34.94632675 433.88142035 -34.96138589 435.50724382 C-35.07563564 448.65316051 -33.1117666 460.39198834 -23.57738495 470.19672108 C-14.00418751 478.45464444 -5.16341789 480.43443017 7.18354034 480.38818836 C9.09409065 480.39286833 9.09409065 480.39286833 11.04323792 480.39764285 C14.57174601 480.40598516 18.10014579 480.40186821 21.62865424 480.39567041 C25.43640101 480.39114481 29.24412918 480.3981301 33.05187225 480.40363026 C40.50739836 480.41252371 47.9628842 480.41060276 55.41841188 480.40480497 C61.47517773 480.40028966 67.53193229 480.39967501 73.58869934 480.40185261 C74.88131978 480.40231231 74.88131978 480.40231231 76.20005377 480.40278129 C77.9505801 480.40342073 79.70110644 480.40406916 81.45163277 480.40472648 C97.86495506 480.41042928 114.27825502 480.40387195 130.69157365 480.39312574 C144.78568847 480.38418392 158.87977035 480.38574757 172.97388458 480.39496326 C189.33436349 480.40565583 205.69482285 480.40988666 222.05530477 480.40373874 C223.79819695 480.40310162 225.54108913 480.40247288 227.28398132 480.40185261 C228.14156827 480.40154406 228.99915521 480.40123551 229.88272963 480.4009176 C235.93672727 480.39918809 241.99071253 480.40211114 248.04470825 480.40681171 C255.41568478 480.41240901 262.78661868 480.41092819 270.1575903 480.40025023 C273.92084882 480.39497891 277.68403617 480.39296154 281.44729424 480.39954853 C285.51886261 480.40656769 289.59024983 480.39821092 293.66181183 480.38818836 C294.86197835 480.39264981 296.06214487 480.39711125 297.29868007 480.40170789 C298.92410696 480.39388465 298.92410696 480.39388465 300.58237076 480.38590336 C301.52310306 480.38557865 302.46383537 480.38525395 303.43307471 480.3849194 C305.87205369 480.34681162 305.87205369 480.34681162 307.6687088 478.13422108 C306.9674588 477.71011951 306.2662088 477.28601795 305.5437088 476.84906483 C290.07723879 467.2875922 277.88001676 453.98927853 273.08203888 435.92548084 C268.76424791 416.51375812 271.04867333 397.79756025 281.08667755 380.61859608 C290.87075429 365.25397186 305.58482757 354.77416583 323.2312088 350.19672108 C327.34915611 349.29423916 331.49589084 348.72404138 335.6687088 348.13422108 C335.78466417 338.0680326 335.87345533 328.00200355 335.92776966 317.93528271 C335.95384074 313.26063251 335.98919295 308.58643994 336.04590607 303.91205311 C336.1003152 299.39921681 336.13014807 294.8868201 336.14309502 290.37368107 C336.15231898 288.65367813 336.1703317 286.93369871 336.19735909 285.2138834 C336.23376952 282.80057402 336.23864941 280.38907044 336.23633575 277.97552967 C336.25431213 277.26774372 336.27228851 276.55995777 336.29080963 275.83072376 C336.23247771 270.19086034 334.40452307 268.02954131 330.6687088 264.13422108 C329.10050006 260.9978036 329.28707841 257.56242625 329.6687088 254.13422108 C330.3287088 252.81422108 330.9887088 251.49422108 331.6687088 250.13422108 C327.7087088 246.17422108 323.7487088 242.21422108 319.6687088 238.13422108 C315.45588804 239.81934938 311.9813174 241.6410535 308.1062088 243.94672108 C283.80973068 258.00376546 253.53907463 263.76815215 225.98462677 256.97040272 C197.33905268 249.24307808 172.45874623 232.57750697 156.6687088 207.13422108 C141.02396332 178.99475746 136.42958432 148.67820691 144.6296463 117.47797108 C149.05789077 102.77996816 156.36107005 88.5484453 166.6687088 77.13422108 C167.30679474 76.34402576 167.94488068 75.55383045 168.60230255 74.73968983 C185.05767179 54.98702543 211.20564716 41.70313504 236.6062088 38.79828358 C267.06895171 36.03573091 296.08561717 42.18984414 320.4812088 61.57172108 C324.88541176 65.31692478 328.98493479 69.31392251 332.9890213 73.48187733 C334.39482619 75.25110115 334.39482619 75.25110115 335.6687088 75.13422108 C335.71857233 70.59932481 335.75464517 66.06459217 335.77857208 61.52948475 C335.78855886 59.99039393 335.802153 58.45132172 335.81958771 56.91229725 C335.98881524 41.57729642 334.63006807 29.76771507 323.79761505 18.17718983 C314.29168142 9.05498195 302.60324088 7.67964352 289.89237213 7.74654102 C288.6507459 7.74115549 287.40911966 7.73576995 286.12986839 7.73022121 C282.71356977 7.71845948 279.29776387 7.71997968 275.8814857 7.72738802 C272.18539512 7.73214226 268.48935549 7.71959001 264.79328156 7.70937061 C257.56400979 7.69222115 250.33482508 7.69133459 243.10553826 7.69658352 C237.22632651 7.70063371 231.34714038 7.6991716 225.46792984 7.69383526 C224.62946381 7.69308684 223.79099778 7.69233841 222.92712369 7.69156731 C221.22348706 7.69003575 219.51985044 7.6884974 217.81621383 7.68695235 C201.85891466 7.6732412 185.90166459 7.6786552 169.94436656 7.69013756 C155.36531571 7.70006813 140.7863918 7.68712986 126.20736052 7.66320337 C111.21506179 7.63878519 96.22282212 7.62921119 81.23050392 7.63585609 C72.82247912 7.63934232 64.41455191 7.63715576 56.00654221 7.61960506 C48.84895999 7.60484902 41.69154408 7.6042919 34.53396501 7.62167598 C30.88669398 7.63016055 27.23971963 7.63239847 23.59246445 7.61702442 C19.62783047 7.60052031 15.66364914 7.61538805 11.69901276 7.63301563 C10.56153473 7.62341063 9.4240567 7.61380562 8.25210965 7.60390955 C-6.44858133 7.7377406 -17.79806307 12.20344542 -27.2062912 23.57172108 Z " fill="#040506" transform="translate(54.33129119873047,11.865778923034668)" />
	<path d="M0 0 C20.20582691 18.04308656 33.83301544 42.78550592 35.92919922 70.06494141 C36.49526553 81.79407886 35.88072509 92.96758561 32.71777344 104.31347656 C32.52441406 105.0139209 32.33105469 105.71436523 32.13183594 106.43603516 C27.51937244 122.71134039 20.16464942 136.76401183 8.71777344 149.31347656 C8.03328125 150.07917969 7.34878906 150.84488281 6.64355469 151.63378906 C-10.89662286 170.24388502 -36.08662581 181.76690201 -61.56738281 182.68457031 C-76.37746592 182.9188413 -90.30068741 182.78761009 -104.28222656 177.31347656 C-105.01038574 177.02939941 -105.73854492 176.74532227 -106.48876953 176.45263672 C-133.41852479 165.55910494 -153.73580965 144.91918536 -165.28222656 118.31347656 C-173.69934526 97.17484406 -174.86154669 74.36392001 -169.28222656 52.31347656 C-168.899375 50.69505859 -168.899375 50.69505859 -168.50878906 49.04394531 C-162.22225182 25.65687329 -145.78853914 4.05893854 -125.28222656 -8.68652344 C-123.93257812 -9.56050781 -123.93257812 -9.56050781 -122.55566406 -10.45214844 C-84.60744745 -33.97799701 -33.54391585 -29.07666483 0 0 Z " fill="#040609" transform="translate(374.2822265625,81.6865234375)" />
	<path d="M0 0 C20.20582691 18.04308656 33.83301544 42.78550592 35.92919922 70.06494141 C36.49526553 81.79407886 35.88072509 92.96758561 32.71777344 104.31347656 C32.52441406 105.0139209 32.33105469 105.71436523 32.13183594 106.43603516 C27.51937244 122.71134039 20.16464942 136.76401183 8.71777344 149.31347656 C8.03328125 150.07917969 7.34878906 150.84488281 6.64355469 151.63378906 C-10.89662286 170.24388502 -36.08662581 181.76690201 -61.56738281 182.68457031 C-76.37746592 182.9188413 -90.30068741 182.78761009 -104.28222656 177.31347656 C-105.01038574 177.02939941 -105.73854492 176.74532227 -106.48876953 176.45263672 C-133.41852479 165.55910494 -153.73580965 144.91918536 -165.28222656 118.31347656 C-173.69934526 97.17484406 -174.86154669 74.36392001 -169.28222656 52.31347656 C-168.899375 50.69505859 -168.899375 50.69505859 -168.50878906 49.04394531 C-162.22225182 25.65687329 -145.78853914 4.05893854 -125.28222656 -8.68652344 C-123.93257812 -9.56050781 -123.93257812 -9.56050781 -122.55566406 -10.45214844 C-84.60744745 -33.97799701 -33.54391585 -29.07666483 0 0 Z M-127.73144531 24.91503906 C-142.72173259 42.57761864 -149.62800559 63.03044701 -148.47314453 86.03662109 C-147.04902038 103.02048533 -139.28402637 119.53719291 -128.28222656 132.31347656 C-127.59515625 133.11269531 -126.90808594 133.91191406 -126.20019531 134.73535156 C-113.47209584 148.43163671 -94.2032464 157.92279328 -75.46191406 158.64941406 C-53.80173848 158.96350282 -34.12533948 154.77783549 -17.28222656 140.31347656 C-16.64414062 139.8171875 -16.00605469 139.32089844 -15.34863281 138.80957031 C-4.68610137 130.18393572 1.72145695 118.82761505 6.71777344 106.31347656 C7.15347656 105.26160156 7.58917969 104.20972656 8.03808594 103.12597656 C14.50936312 84.66247244 12.03344891 62.54019189 3.98168945 45.02685547 C0.43141485 37.71429852 -3.76211054 31.31634038 -9.28222656 25.31347656 C-9.98089844 24.53488281 -10.67957031 23.75628906 -11.39941406 22.95410156 C-24.58158552 8.97443219 -43.94779465 -0.06081389 -63.11425781 -0.96386719 C-87.91518411 -1.65822699 -110.48111016 6.59171655 -127.73144531 24.91503906 Z " fill="#0079FC" transform="translate(374.2822265625,81.6865234375)" />
	<path d="M0 0 C11.7915773 9.9852695 21.08454097 25.00496353 22.79174805 40.58081055 C23.50903751 52.419353 21.93957351 62.43743248 17.5546875 73.41796875 C17.20535156 74.33964844 16.85601562 75.26132812 16.49609375 76.2109375 C9.87147308 91.47425766 -4.49255385 101.34259267 -19.26953125 107.6171875 C-33.29970495 112.73703322 -49.69286699 112.14250888 -63.4453125 106.41796875 C-80.16637451 98.46928657 -91.9854325 85.4780519 -98.640625 68.33984375 C-104.32821328 51.23730558 -102.2722328 34.88085374 -94.3828125 18.85546875 C-85.64526469 3.44832154 -71.96840987 -6.8797805 -55.12890625 -12.33203125 C-35.92462976 -17.01124583 -15.47359392 -12.16815933 0 0 Z " fill="#F9CA54" transform="translate(433.4453125,380.58203125)" />
	<path d="M0 0 C1.49853516 0.52787109 1.49853516 0.52787109 3.02734375 1.06640625 C10.11267229 3.77366293 16.03991149 7.33514295 22 12 C23.03060547 12.78310547 23.03060547 12.78310547 24.08203125 13.58203125 C37.5526483 24.50199892 46.85342561 41.84657071 49 59 C50.09363199 71.70739615 49.46419005 86.64399045 43 98 C39.48230296 96.82743432 39.14575128 96.04127586 37.125 93.0625 C27.04916435 79.81035708 10.05130571 70.70414747 -6 67 C-5.61328125 66.5875 -5.2265625 66.175 -4.828125 65.75 C2.64489963 57.4630816 5.45863009 49.81975628 5.33203125 38.64453125 C4.62838837 30.92101587 1.21533466 25.83211401 -4.3125 20.5625 C-11.37439031 14.82253989 -17.49496857 13.29044925 -26.61328125 13.5234375 C-33.83820362 14.54009324 -40.46559925 17.93801324 -45.5 23.25 C-51.02117604 30.69868721 -53.27593029 38.80540957 -52 48 C-50.13715513 55.44035673 -46.35103441 60.6189036 -41 66 C-43.95469211 67.57731684 -46.9923068 68.77692164 -50.12573242 69.9519043 C-65.58792391 75.82453545 -77.61273023 85.13867143 -88 98 C-90 97 -90 97 -91.03515625 94.5234375 C-91.37417969 93.48445313 -91.71320313 92.44546875 -92.0625 91.375 C-92.57490234 89.83972656 -92.57490234 89.83972656 -93.09765625 88.2734375 C-97.9059266 70.83044809 -95.93219417 51.17108789 -87.75 35.125 C-78.29694695 18.86815717 -64.70344541 6.59482652 -47 0 C-46.20078125 -0.30035156 -45.4015625 -0.60070312 -44.578125 -0.91015625 C-31.05139069 -5.11282659 -13.28241956 -4.92894556 0 0 Z " fill="#F1F3F5" transform="translate(329,92)" />
	<path d="M0 0 C6.62743589 5.14573569 15.55742555 12.19209918 19 20 C18.55168235 26.79481443 11.06849233 32.96733982 6.51953125 37.4375 C-8.98466838 50.94796745 -28.48258371 57.16126625 -48.94433594 56.17480469 C-69.68545193 54.41107083 -87.17928169 42.74429976 -100.48828125 27.26953125 C-102.19411003 24.98923092 -103.03871433 23.53929969 -102.83203125 20.66015625 C-99.3589642 9.55612497 -87.14814543 1.09226826 -77.35644531 -4.19848633 C-52.20215594 -17.13918441 -23.53782077 -16.44663056 0 0 Z " fill="#F56B81" transform="translate(348,177)" />
	<path d="M0 0 C2.97731439 1.13778734 4.95560994 2.70187823 7.38793945 4.76367188 C8.34829102 5.57578125 9.30864258 6.38789063 10.2980957 7.22460938 C13.87755781 10.34635457 17.36562799 13.56598732 20.84326172 16.80029297 C24.07567975 19.79232631 27.3917235 22.62591191 30.82543945 25.38867188 C35.34402121 29.02431237 39.60527275 32.85703589 43.84716797 36.80493164 C47.05842996 39.77582816 50.3517176 42.58828264 53.76293945 45.32617188 C75.50121239 62.95692231 75.50121239 62.95692231 76.71606445 73.17382812 C77.13561232 82.08922025 75.72204744 88.04386599 69.71606445 94.66210938 C63.36906931 100.63061398 56.62321978 102.49480537 48.00512695 102.24414062 C39.57853287 101.12632712 33.27077121 95.36635807 28.20043945 88.88867188 C24.87831111 84.73877069 21.44802248 80.77262635 17.82543945 76.88867188 C13.55569927 72.30161606 9.56781424 67.55419483 5.63793945 62.66992188 C3.12572689 59.64847704 0.50139857 56.76428805 -2.17456055 53.88867188 C-6.47504316 49.26643511 -10.51683197 44.49854176 -14.45581055 39.56054688 C-17.48445736 35.9133736 -20.7799409 32.54015765 -24.11987305 29.17773438 C-25.67456055 26.88867188 -25.67456055 26.88867188 -25.56762695 24.57910156 C-23.84190907 19.3802467 -19.29501081 15.84498445 -15.47436523 12.05712891 C-13.92564302 10.51474992 -12.40551286 8.94756959 -10.88549805 7.37695312 C-9.90535069 6.39226156 -8.92363088 5.40913216 -7.94018555 4.42773438 C-7.05105469 3.5326416 -6.16192383 2.63754883 -5.24584961 1.71533203 C-2.67456055 -0.11132812 -2.67456055 -0.11132812 0 0 Z " fill="#FBCB55" transform="translate(415.674560546875,245.111328125)" />
	<path d="M0 0 C1.02049438 -0.00145523 2.04098877 -0.00291046 3.09240723 -0.00440979 C5.24408837 -0.00275418 7.39578177 0.00876912 9.54736328 0.02954102 C12.83287072 0.05849787 16.11676348 0.05014154 19.40234375 0.03710938 C21.49740364 0.04334729 23.59245846 0.05173865 25.6875 0.0625 C26.66577759 0.05956436 27.64405518 0.05662872 28.65197754 0.05360413 C33.95642409 0.12664552 37.77899966 0.48844845 42.34375 3.49609375 C45.79322226 7.31848193 47.45719749 9.72393012 47.52075195 14.8347168 C47.54000481 16.18203133 47.54000481 16.18203133 47.55964661 17.55656433 C47.56703354 18.53047623 47.57442047 19.50438812 47.58203125 20.5078125 C47.590103 21.50939896 47.59817474 22.51098541 47.60649109 23.54292297 C47.62033967 25.66718817 47.63105835 27.79147568 47.63891602 29.91577148 C47.65608913 33.15326656 47.69996414 36.38973001 47.74414062 39.62695312 C47.75427102 41.69139874 47.76278603 43.75585305 47.76953125 45.8203125 C47.78703934 46.78410324 47.80454742 47.74789398 47.82258606 48.7408905 C47.80299649 54.8608281 47.2265852 58.65663466 43.34375 63.49609375 C37.71560964 67.83709768 31.80462352 68.08757464 24.9296875 68.02734375 C23.4697789 68.03308411 23.4697789 68.03308411 21.9803772 68.03894043 C19.9348242 68.04164844 17.88923591 68.03436557 15.84375 68.01757812 C12.72056828 67.99610625 9.59967455 68.0174419 6.4765625 68.04296875 C4.48176578 68.04032618 2.48697049 68.03520268 0.4921875 68.02734375 C-0.43606842 68.03544067 -1.36432434 68.0435376 -2.32070923 68.05187988 C-7.91153742 67.97128534 -11.32643897 67.37247488 -15.65625 63.49609375 C-20.44683008 58.24746216 -20.22788609 53.33250204 -20.15234375 46.5859375 C-20.15379898 45.5408754 -20.15525421 44.49581329 -20.15675354 43.41908264 C-20.15509786 41.21612756 -20.14357378 39.01316051 -20.12280273 36.81030273 C-20.09381712 33.44139447 -20.10220775 30.07405784 -20.11523438 26.70507812 C-20.10899746 24.56119028 -20.10060689 22.4173074 -20.08984375 20.2734375 C-20.09277939 19.26812485 -20.09571503 18.26281219 -20.09873962 17.22703552 C-19.9774703 8.22802382 -19.9774703 8.22802382 -16.65625 4.49609375 C-11.43967269 -0.22397935 -6.6786772 -0.0766941 0 0 Z " fill="#017AFC" transform="translate(74.65625,280.50390625)" />
	<path d="M0 0 C0.87481018 -0.0127597 1.74962036 -0.02551941 2.65093994 -0.03866577 C3.58951843 -0.04089142 4.52809692 -0.04311707 5.49511719 -0.04541016 C6.46930603 -0.05206696 7.44349487 -0.05872375 8.44720459 -0.06558228 C10.50824091 -0.07570176 12.56930995 -0.08039951 14.63037109 -0.08007812 C17.76683378 -0.08443769 20.9018734 -0.12072751 24.03808594 -0.15869141 C26.04459157 -0.1645626 28.05110385 -0.16852997 30.05761719 -0.17041016 C30.98809875 -0.18478119 31.91858032 -0.19915222 32.8772583 -0.21395874 C38.85026049 -0.17254264 43.72000338 0.55481846 48.54199219 4.29052734 C52.97059122 9.8585488 53.15696184 14.80494719 53.14355469 21.75537109 C53.15212494 22.74751114 53.16069519 23.73965118 53.16952515 24.76185608 C53.18096836 26.85203002 53.18204426 28.94228357 53.17333984 31.0324707 C53.1670169 34.21558506 53.21398566 37.39498107 53.26464844 40.57763672 C53.26919503 42.61604352 53.27060113 44.65446025 53.26855469 46.69287109 C53.28697418 47.63581528 53.30539368 48.57875946 53.32437134 49.55027771 C53.24145042 55.52598025 52.09198323 59.19239828 48.14344788 63.75076294 C43.37525868 68.33527192 37.30726651 67.65746157 31.05371094 67.73193359 C29.52796196 67.75259132 29.52796196 67.75259132 27.97138977 67.77366638 C25.82220874 67.79690339 23.67295621 67.81418658 21.52368164 67.82592773 C18.25044236 67.852855 14.98043409 67.92779622 11.70800781 68.00341797 C9.6149305 68.02007668 7.52182775 68.03384262 5.42871094 68.04443359 C4.45761887 68.07428848 3.48652679 68.10414337 2.48600769 68.13490295 C-4.00783077 68.09326104 -7.30733955 66.59191978 -11.99308777 62.08824158 C-14.42721808 59.10113609 -14.59535746 56.36419722 -14.66674805 52.65478516 C-14.68603867 51.7166095 -14.70532928 50.77843384 -14.72520447 49.81182861 C-14.78309046 45.52156574 -14.83222135 41.23146745 -14.86303711 36.94091797 C-14.88461734 34.6809969 -14.91872014 32.42115942 -14.96557617 30.16162109 C-15.03263619 26.89691992 -15.06004654 23.63394548 -15.07910156 20.36865234 C-15.10693222 19.3642511 -15.13476288 18.35984985 -15.16343689 17.32501221 C-15.14598637 11.34496454 -14.32253768 7.99031392 -10.13929749 3.62762451 C-6.83975629 1.00356319 -4.2063312 0.04184112 0 0 Z " fill="#F46B81" transform="translate(69.4580078125,380.70947265625)" />
	<path d="M0 0 C1.83643808 2.26023148 3.65919037 4.5089518 5.3203125 6.90234375 C11.64607156 15.90704449 21.53094139 22.95857028 32.35580206 25.56785583 C35.00583587 26.00095376 37.45577692 26.12031159 40.1391983 26.11352539 C41.6678328 26.11341162 41.6678328 26.11341162 43.2273488 26.11329556 C44.34007394 26.10813458 45.45279908 26.10297361 46.59924316 26.09765625 C47.78674022 26.09624413 48.97423728 26.09483202 50.1977191 26.09337711 C52.80340813 26.08963596 55.4090199 26.08407054 58.0146904 26.07545662 C62.25491677 26.06151308 66.49513783 26.0545604 70.73538208 26.0486908 C75.30301646 26.0420536 79.87064765 26.03492242 84.43827724 26.02550411 C95.76937381 26.00230379 107.10039994 25.9953501 118.43151855 25.99829102 C119.66147209 25.99856464 119.66147209 25.99856464 120.91627318 25.99884379 C127.66901721 26.00037466 134.42176103 26.00254406 141.17450488 26.00474477 C147.25598501 26.00665412 153.33746489 26.00789991 159.41894531 26.00830078 C160.28596728 26.0083651 161.15298925 26.00842942 162.04628462 26.00849569 C176.08256294 26.00865153 190.11865114 25.97999671 204.15487033 25.94156575 C218.57752002 25.90282854 232.99989995 25.89843662 247.42257833 25.92484093 C256.31128926 25.93997331 265.1991185 25.9281209 274.08772212 25.88120073 C280.1865483 25.85150776 286.28480079 25.85502337 292.38362712 25.88417059 C295.8976601 25.89997601 299.4101046 25.90151664 302.92399979 25.86323357 C328.41389629 25.63691172 328.41389629 25.63691172 337.95238495 33.87452698 C338.62809792 34.57593307 339.30381088 35.27733917 340 36 C340.66 36.66 341.32 37.32 342 38 C339.47993411 39.26003294 337.75227343 39.12999906 334.93042183 39.13701439 C333.85050409 39.14208893 332.77058636 39.14716347 331.65794384 39.15239179 C329.86383314 39.15313843 329.86383314 39.15313843 328.03347778 39.15390015 C326.77025094 39.1582824 325.5070241 39.16266465 324.20551765 39.1671797 C320.68731517 39.17916428 317.16912642 39.18479806 313.65090752 39.18936086 C309.86062085 39.19531018 306.07035065 39.20692204 302.28007507 39.21765137 C293.11800223 39.24219613 283.95592393 39.25680833 274.79382831 39.26971143 C272.20560423 39.27342274 269.6173807 39.27739605 267.02915716 39.2814641 C250.95590658 39.30670694 234.88265515 39.32875976 218.80938911 39.34119225 C215.08451459 39.34412196 211.35964009 39.34708361 207.63476562 39.35009766 C206.24606193 39.35121673 206.24606193 39.35121673 204.82930361 39.35235842 C189.84483778 39.36500144 174.86049091 39.39820839 159.87608065 39.43989949 C144.48970975 39.48235753 129.10339964 39.50589201 113.71697032 39.51111281 C105.07908649 39.51452323 96.44138828 39.52623425 87.80356216 39.55921555 C80.44371168 39.58727088 73.08408486 39.59819159 65.72418506 39.58702008 C61.97171199 39.58184676 58.21970687 39.58463263 54.46730232 39.60948563 C50.38999951 39.63626367 46.31371843 39.62387238 42.23635864 39.60800171 C40.47570877 39.62882484 40.47570877 39.62882484 38.67949021 39.65006864 C27.34937589 39.54176681 18.09783482 36.01547251 9.90234375 28.1015625 C2.46159968 19.88160293 -0.52348427 10.99316966 0 0 Z " fill="#D6D9DE" transform="translate(20,453)" />
	<path d="M0 0 C6.87129452 5.74869524 12.29718456 13.90276792 13.25 22.9375 C13.3428125 23.75605469 13.435625 24.57460938 13.53125 25.41796875 C14.08108839 34.94391888 11.00232 44.05121692 4.9375 51.4375 C-2.65272763 59.20766837 -11.81424592 62.91530953 -22.625 63.4375 C-32.03118077 63.15942525 -40.32130015 59.30947455 -47.0703125 52.8125 C-54.18003724 44.87606308 -57.45416537 35.37773954 -57.09375 24.73046875 C-56.00307436 15.86872915 -52.12158257 8.16827412 -45.75 1.9375 C-31.44543561 -9.08059599 -15.08822234 -10.62047461 0 0 Z " fill="#EEF0F1" transform="translate(415.75,401.0625)" />
	<path d="M0 0 C5.53689151 4.48326943 8.93871093 9.61951106 12 16 C12.598125 17.155 13.19625 18.31 13.8125 19.5 C16.69442586 27.68466943 16.37599756 39.91184076 13.03515625 47.9609375 C12.52275391 48.97027344 12.52275391 48.97027344 12 50 C11.58621094 50.81726563 11.17242187 51.63453125 10.74609375 52.4765625 C5.28028316 62.33587207 -1.52989449 68.76600749 -12 73 C-12.89976562 73.36609375 -13.79953125 73.7321875 -14.7265625 74.109375 C-23.97272577 76.62503756 -36.28828468 76.54127841 -44.9375 72.26171875 C-48.52343785 70.06804844 -51.81815102 67.7509736 -55 65 C-55.61875 64.47535156 -56.2375 63.95070313 -56.875 63.41015625 C-63.88919243 56.98551879 -68.82397062 47.43847505 -69.3359375 37.86328125 C-69.60847373 24.24391586 -67.52103465 14.28038097 -58 4 C-41.65194832 -12.85786618 -18.63526923 -13.13431082 0 0 Z M-54 10 C-60.47639865 18.56815473 -63.11328471 27.30401144 -62 38 C-59.80641029 48.28491462 -55.219129 56.28550925 -46.5625 62.375 C-37.51703302 67.8571012 -29.43639854 69.56359819 -18.87890625 67.34375 C-8.92161935 64.40095948 -1.63616277 59.22113433 3.78125 50.3125 C8.42960036 41.49255317 9.37395905 32.72706597 7 23 C3.69468144 13.3002801 -2.88823706 5.60284932 -12 1 C-26.93059929 -6.11239457 -42.77647325 -1.45939772 -54 10 Z " fill="#070604" transform="translate(421,396)" />
	<path d="M0 0 C1.02049438 -0.00145523 2.04098877 -0.00291046 3.09240723 -0.00440979 C5.24408837 -0.00275418 7.39578177 0.00876912 9.54736328 0.02954102 C12.83287072 0.05849787 16.11676348 0.05014154 19.40234375 0.03710938 C21.49740364 0.04334729 23.59245846 0.05173865 25.6875 0.0625 C26.66577759 0.05956436 27.64405518 0.05662872 28.65197754 0.05360413 C33.95642409 0.12664552 37.77899966 0.48844845 42.34375 3.49609375 C45.79322226 7.31848193 47.45719749 9.72393012 47.52075195 14.8347168 C47.54000481 16.18203133 47.54000481 16.18203133 47.55964661 17.55656433 C47.56703354 18.53047623 47.57442047 19.50438812 47.58203125 20.5078125 C47.590103 21.50939896 47.59817474 22.51098541 47.60649109 23.54292297 C47.62033967 25.66718817 47.63105835 27.79147568 47.63891602 29.91577148 C47.65608913 33.15326656 47.69996414 36.38973001 47.74414062 39.62695312 C47.75427102 41.69139874 47.76278603 43.75585305 47.76953125 45.8203125 C47.78703934 46.78410324 47.80454742 47.74789398 47.82258606 48.7408905 C47.80299649 54.8608281 47.2265852 58.65663466 43.34375 63.49609375 C37.71560964 67.83709768 31.80462352 68.08757464 24.9296875 68.02734375 C23.4697789 68.03308411 23.4697789 68.03308411 21.9803772 68.03894043 C19.9348242 68.04164844 17.88923591 68.03436557 15.84375 68.01757812 C12.72056828 67.99610625 9.59967455 68.0174419 6.4765625 68.04296875 C4.48176578 68.04032618 2.48697049 68.03520268 0.4921875 68.02734375 C-0.43606842 68.03544067 -1.36432434 68.0435376 -2.32070923 68.05187988 C-7.91153742 67.97128534 -11.32643897 67.37247488 -15.65625 63.49609375 C-20.44683008 58.24746216 -20.22788609 53.33250204 -20.15234375 46.5859375 C-20.15379898 45.5408754 -20.15525421 44.49581329 -20.15675354 43.41908264 C-20.15509786 41.21612756 -20.14357378 39.01316051 -20.12280273 36.81030273 C-20.09381712 33.44139447 -20.10220775 30.07405784 -20.11523438 26.70507812 C-20.10899746 24.56119028 -20.10060689 22.4173074 -20.08984375 20.2734375 C-20.09277939 19.26812485 -20.09571503 18.26281219 -20.09873962 17.22703552 C-19.9774703 8.22802382 -19.9774703 8.22802382 -16.65625 4.49609375 C-11.43967269 -0.22397935 -6.6786772 -0.0766941 0 0 Z M-12.65625 11.49609375 C-13.33965258 14.7261229 -13.28567138 17.86202699 -13.21484375 21.15234375 C-13.21251236 22.0916272 -13.21018097 23.03091064 -13.20777893 23.99865723 C-13.19804545 25.98243301 -13.17626749 27.96618114 -13.14331055 29.94970703 C-13.09392854 32.98511942 -13.08183105 36.01890979 -13.07617188 39.0546875 C-13.06208432 40.98309015 -13.04587936 42.91147873 -13.02734375 44.83984375 C-13.02198105 45.7472229 -13.01661835 46.65460205 -13.01109314 47.58947754 C-12.99510574 48.43715698 -12.97911835 49.28483643 -12.96264648 50.15820312 C-12.95200668 50.90114624 -12.94136688 51.64408936 -12.93040466 52.4095459 C-12.61023749 54.84628768 -11.96530131 56.4189542 -10.65625 58.49609375 C-7.60866601 60.52781641 -6.97182279 60.75049895 -3.53955078 60.78662109 C-2.71504425 60.7993808 -1.89053772 60.8121405 -1.04104614 60.82528687 C-0.15351654 60.82751251 0.73401306 60.82973816 1.6484375 60.83203125 C2.56456818 60.83868805 3.48069885 60.84534485 4.42459106 60.85220337 C6.36295565 60.8623292 8.30135509 60.86702041 10.23974609 60.86669922 C13.20078233 60.87106724 16.16032179 60.90737284 19.12109375 60.9453125 C21.00520324 60.95118175 22.88931981 60.95515042 24.7734375 60.95703125 C25.65691864 60.97140228 26.54039978 60.98577332 27.45065308 61.00057983 C31.28273611 60.97219816 33.88382178 60.70629001 37.40258789 59.09814453 C40.40477468 55.07383227 40.04091687 51.2992722 39.97265625 46.40234375 C39.97506821 45.41866821 39.97748016 44.43499268 39.97996521 43.42150879 C39.97898655 41.34362757 39.96558861 39.26572035 39.94067383 37.18798828 C39.90637018 34.00723714 39.92001282 30.82926454 39.93945312 27.6484375 C39.93255457 25.62889442 39.92288211 23.60935852 39.91015625 21.58984375 C39.91511612 20.63871704 39.92007599 19.68759033 39.92518616 18.7076416 C39.85743372 14.90971362 39.76252733 12.25465534 37.90966797 8.8984375 C33.93228393 6.72468927 30.18711522 6.92486731 25.72265625 6.96484375 C24.78574448 6.96101685 23.8488327 6.95718994 22.88352966 6.95324707 C20.90403162 6.95052774 18.92449766 6.95789041 16.94506836 6.97460938 C13.92024251 6.99599482 10.8977983 6.97482094 7.87304688 6.94921875 C5.94791144 6.95186249 4.02277748 6.95698843 2.09765625 6.96484375 C1.19543839 6.95674683 0.29322052 6.9486499 -0.63633728 6.94030762 C-5.7503489 7.01638176 -9.38526881 7.12925506 -12.65625 11.49609375 Z " fill="#020407" transform="translate(74.65625,280.50390625)" />
	<path d="M0 0 C0.87481018 -0.0127597 1.74962036 -0.02551941 2.65093994 -0.03866577 C3.58951843 -0.04089142 4.52809692 -0.04311707 5.49511719 -0.04541016 C6.46930603 -0.05206696 7.44349487 -0.05872375 8.44720459 -0.06558228 C10.50824091 -0.07570176 12.56930995 -0.08039951 14.63037109 -0.08007812 C17.76683378 -0.08443769 20.9018734 -0.12072751 24.03808594 -0.15869141 C26.04459157 -0.1645626 28.05110385 -0.16852997 30.05761719 -0.17041016 C30.98809875 -0.18478119 31.91858032 -0.19915222 32.8772583 -0.21395874 C38.85026049 -0.17254264 43.72000338 0.55481846 48.54199219 4.29052734 C52.97059122 9.8585488 53.15696184 14.80494719 53.14355469 21.75537109 C53.15212494 22.74751114 53.16069519 23.73965118 53.16952515 24.76185608 C53.18096836 26.85203002 53.18204426 28.94228357 53.17333984 31.0324707 C53.1670169 34.21558506 53.21398566 37.39498107 53.26464844 40.57763672 C53.26919503 42.61604352 53.27060113 44.65446025 53.26855469 46.69287109 C53.28697418 47.63581528 53.30539368 48.57875946 53.32437134 49.55027771 C53.24145042 55.52598025 52.09198323 59.19239828 48.14344788 63.75076294 C43.37525868 68.33527192 37.30726651 67.65746157 31.05371094 67.73193359 C29.52796196 67.75259132 29.52796196 67.75259132 27.97138977 67.77366638 C25.82220874 67.79690339 23.67295621 67.81418658 21.52368164 67.82592773 C18.25044236 67.852855 14.98043409 67.92779622 11.70800781 68.00341797 C9.6149305 68.02007668 7.52182775 68.03384262 5.42871094 68.04443359 C4.45761887 68.07428848 3.48652679 68.10414337 2.48600769 68.13490295 C-4.00783077 68.09326104 -7.30733955 66.59191978 -11.99308777 62.08824158 C-14.42721808 59.10113609 -14.59535746 56.36419722 -14.66674805 52.65478516 C-14.68603867 51.7166095 -14.70532928 50.77843384 -14.72520447 49.81182861 C-14.78309046 45.52156574 -14.83222135 41.23146745 -14.86303711 36.94091797 C-14.88461734 34.6809969 -14.91872014 32.42115942 -14.96557617 30.16162109 C-15.03263619 26.89691992 -15.06004654 23.63394548 -15.07910156 20.36865234 C-15.10693222 19.3642511 -15.13476288 18.35984985 -15.16343689 17.32501221 C-15.14598637 11.34496454 -14.32253768 7.99031392 -10.13929749 3.62762451 C-6.83975629 1.00356319 -4.2063312 0.04184112 0 0 Z M-5.5168457 9.21582031 C-8.23710153 13.52457417 -8.17840842 17.00465933 -8.12207031 22.00927734 C-8.12685394 22.94477417 -8.13163757 23.880271 -8.13656616 24.84411621 C-8.13996142 26.81764411 -8.1307852 28.79122853 -8.10986328 30.76464844 C-8.0830918 33.7810639 -8.10962317 36.79375851 -8.14160156 39.81005859 C-8.1382974 41.7306397 -8.13189102 43.6512185 -8.12207031 45.57177734 C-8.13219147 46.47085815 -8.14231262 47.36993896 -8.15274048 48.29626465 C-8.07440013 52.49330505 -7.79971579 54.7522666 -5.51025391 58.35864258 C-1.26305713 61.04685791 2.10736782 60.99401608 7.04199219 60.91943359 C7.95529297 60.92184555 8.86859375 60.92425751 9.80957031 60.92674255 C11.73604688 60.92576524 13.66255192 60.91239927 15.58886719 60.88745117 C18.53254893 60.85313742 21.47322808 60.86679887 24.41699219 60.88623047 C26.29200493 60.87933174 28.16700994 60.86965911 30.04199219 60.85693359 C30.91919922 60.86189346 31.79640625 60.86685333 32.70019531 60.8719635 C36.83149986 60.79259881 39.00397006 60.62960782 42.57324219 58.38012695 C46.31207419 54.41179075 45.7362304 50.49431062 45.78027344 45.30224609 C45.78834518 44.40689651 45.79641693 43.51154694 45.80473328 42.58906555 C45.81857649 40.69180235 45.82929758 38.79451422 45.8371582 36.8972168 C45.85436264 33.99984341 45.89824496 31.10361356 45.94238281 28.20654297 C45.95251051 26.3634524 45.96102637 24.52035213 45.96777344 22.67724609 C45.98528152 21.81250168 46.00278961 20.94775726 46.02082825 20.05680847 C46.00601514 15.93517082 45.88351786 13.83366234 43.64038086 10.26635742 C40.8178245 7.60865543 39.30464147 7.16430891 35.53881836 7.09765625 C34.7142363 7.08159332 33.88965424 7.0655304 33.04008484 7.04898071 C29.2672102 7.00450207 25.4945111 6.96346472 21.72143555 6.94042969 C19.73205872 6.92387184 17.74274134 6.89658406 15.75366211 6.85839844 C12.88461464 6.80360471 10.01696132 6.78175218 7.14746094 6.76708984 C6.26084274 6.74442047 5.37422455 6.7217511 4.46073914 6.69839478 C0.284338 6.71266617 -1.91713992 6.95009441 -5.5168457 9.21582031 Z " fill="#020304" transform="translate(69.4580078125,380.70947265625)" />
	<path d="M0 0 C5.50739177 3.29284055 9.34244024 8.35654382 11.5 14.375 C12.4756876 21.25842237 11.73446761 26.54887434 7.98046875 32.4375 C3.49943927 38.30185521 -2.24239198 41.53623763 -9.5078125 42.6953125 C-14.89936895 43.01246288 -19.13073153 41.50587302 -23.5 38.375 C-28.39299711 33.77039172 -31.9773801 29.36341505 -32.87109375 22.54296875 C-33.02966249 15.42603053 -32.30776191 10.75825461 -27.5 5.375 C-20.06355012 -2.06144988 -10.04557794 -4.62903305 0 0 Z " fill="#646C77" transform="translate(316.5,114.625)" />
	<path d="M0 0 C2.0625 1.75 2.0625 1.75 4 4 C3.42340662 11.66045494 -5.6542324 18.97469798 -11.0625 23.6875 C-26.81507291 35.99350717 -46.0597089 41.69563521 -66 40 C-86.03215783 37.18796048 -102.42741329 26.45578979 -115.48828125 11.26953125 C-117.41256641 8.69720503 -118.03177751 7.36544141 -117.75 4.125 C-117.5025 3.42375 -117.255 2.7225 -117 2 C-114 2 -114 2 -111.3125 4.375 C-109 7 -109 7 -109 9 C-108.42765625 9.26425781 -107.8553125 9.52851563 -107.265625 9.80078125 C-104.87621766 11.06551927 -102.89727371 12.54701292 -100.75 14.1875 C-96.36165378 17.29050221 -91.89385631 19.64187514 -87 21.8125 C-86.36030273 22.10213623 -85.72060547 22.39177246 -85.06152344 22.69018555 C-76.0578962 26.54612626 -67.14991564 27.32723591 -57.4375 27.25 C-56.46103516 27.25773437 -55.48457031 27.26546875 -54.47851562 27.2734375 C-34.91483314 27.2210932 -18.33936948 19.03370403 -3.99609375 6.11328125 C-2.12556832 4.13294023 -1.04222097 2.49569669 0 0 Z " fill="#E65261" transform="translate(363,193)" />
	<path d="M0 0 C1.30412338 -0.00281982 2.60824677 -0.00563965 3.95188904 -0.00854492 C5.41067519 -0.00660032 6.8694612 -0.00455213 8.32824707 -0.00241089 C9.85384666 -0.00376487 11.37944592 -0.00554478 12.90504456 -0.00772095 C17.05988675 -0.0122957 21.21470424 -0.01050555 25.36954689 -0.00734186 C29.70795384 -0.00481848 34.0463586 -0.00715574 38.38476562 -0.00872803 C45.67175681 -0.01054979 52.95873788 -0.00814325 60.24572754 -0.00338745 C68.68279376 0.00205518 77.11983582 0.00029253 85.55690145 -0.00521386 C92.78745274 -0.00974481 100.01799674 -0.01039562 107.24854898 -0.00777519 C111.57288414 -0.00621231 115.89720792 -0.00601893 120.22154236 -0.00931168 C124.28605219 -0.01219013 128.35053072 -0.01021518 132.41503716 -0.00441742 C133.91107061 -0.00308968 135.40710668 -0.00348417 136.90313911 -0.00568008 C138.93680861 -0.00839102 140.97048384 -0.00439727 143.00415039 0 C144.14495308 0.00037703 145.28575577 0.00075405 146.46112823 0.0011425 C149.0020752 0.12698364 149.0020752 0.12698364 150.0020752 1.12698364 C150.1270752 4.12698364 150.1270752 4.12698364 150.0020752 7.12698364 C148.19727128 8.93178755 145.44243709 8.25712037 143.01087952 8.26069641 C141.70820129 8.2649614 140.40552307 8.26922638 139.06336975 8.27362061 C137.60617062 8.27327104 136.14897152 8.27280948 134.69177246 8.27224731 C133.16779497 8.27523716 131.64381825 8.27863928 130.11984253 8.28242493 C125.96906936 8.29128687 121.81831678 8.29360396 117.66753507 8.29424071 C114.20809425 8.29518799 110.74865828 8.29886417 107.28921932 8.30241281 C99.13059523 8.3105657 90.97198218 8.31299628 82.81335449 8.31228638 C74.38424223 8.31168535 65.95519391 8.32224027 57.52609783 8.33803004 C50.30062544 8.35108513 43.075174 8.35647113 35.8496899 8.35583097 C31.52921647 8.35557538 27.20879983 8.35845976 22.88833809 8.36900902 C18.82626314 8.37865594 14.76429968 8.37879276 10.70222092 8.37149239 C9.20821788 8.37044228 7.71420803 8.37283447 6.22021675 8.37885284 C4.18690986 8.38651556 2.15356535 8.38075471 0.12025452 8.3742218 C-1.01962638 8.37476657 -2.15950727 8.37531134 -3.33393002 8.37587261 C-5.9979248 8.12698364 -5.9979248 8.12698364 -7.9979248 6.12698364 C-7.23775079 -0.10644325 -6.02623172 0.00199162 0 0 Z " fill="#121314" transform="translate(165.9979248046875,295.8730163574219)" />
	<path d="M0 0 C20.30532228 -0.0466685 40.61063372 -0.08196352 60.91599846 -0.10362434 C70.343594 -0.11394802 79.77115628 -0.12802914 89.19873047 -0.15087891 C97.4133812 -0.17077944 105.62800784 -0.18370849 113.842682 -0.18817699 C118.19447697 -0.19079004 122.546203 -0.19695438 126.89797592 -0.21146011 C130.99039622 -0.22499139 135.08271891 -0.22923172 139.17515945 -0.22621536 C140.68045328 -0.22676753 142.18575023 -0.23077145 143.69102478 -0.23841095 C145.73970199 -0.24830203 147.78843107 -0.24479117 149.83712769 -0.24050903 C150.98568174 -0.24235262 152.1342358 -0.24419621 153.31759453 -0.24609566 C156 0 156 0 158 2 C157.46428571 5.53571429 157.46428571 5.53571429 156 7 C154.0049979 7.10110736 152.0063647 7.130775 150.00880432 7.13371277 C148.7061261 7.13797775 147.40344788 7.14224274 146.06129456 7.14663696 C144.60409543 7.1462874 143.14689633 7.14582584 141.68969727 7.14526367 C140.16571978 7.14825352 138.64174305 7.15165564 137.11776733 7.15544128 C132.96699416 7.16430323 128.81624159 7.16662031 124.66545987 7.16725707 C121.20601905 7.16820434 117.74658308 7.17188053 114.28714412 7.17542917 C106.12852004 7.18358205 97.96990699 7.18601264 89.8112793 7.18530273 C81.38216703 7.1847017 72.95311871 7.19525663 64.52402264 7.2110464 C57.29855025 7.22410148 50.07309881 7.22948749 42.84761471 7.22884732 C38.52714127 7.22859174 34.20672463 7.23147612 29.88626289 7.24202538 C25.82418795 7.2516723 21.76222448 7.25180912 17.70014572 7.24450874 C16.20614269 7.24345864 14.71213284 7.24585083 13.21814156 7.2518692 C11.18483466 7.25953192 9.15149016 7.25377107 7.11817932 7.24723816 C5.97829843 7.24778293 4.83841753 7.24832769 3.66399479 7.24888897 C1 7 1 7 -1 5 C-0.625 2.375 -0.625 2.375 0 0 Z " fill="#000102" transform="translate(159,397)" />
	<path d="M0 0 C1.55897145 2.038297 3.05667256 4.0856853 4.47265625 6.2265625 C14.50603493 21.36291265 28.15514884 31.968245 46.00292969 36.0168457 C62.63965056 39.24816204 79.92731742 36.47138989 94.546875 27.7265625 C104.95353899 20.40212702 113.29592035 11.35558714 119 0 C120.8421518 5.52645541 117.38855963 10.94553615 115 16 C105.63302136 31.40569041 91.90244424 42.54001238 74.37890625 47.15234375 C57.81005674 50.7908889 41.16111988 47.93875196 26.81640625 38.98046875 C13.06389842 29.30984258 2.97231932 16.75307255 0 0 Z " fill="#DEB44B" transform="translate(334,443)" />
	<path d="M0 0 C1.04183945 -0.00426498 2.08367889 -0.00852997 3.15708923 -0.01292419 C4.88622055 -0.01224442 4.88622055 -0.01224442 6.65028381 -0.0115509 C8.4598481 -0.01658882 8.4598481 -0.01658882 10.30596924 -0.02172852 C13.62413946 -0.02962428 16.94224713 -0.03290746 20.26042247 -0.0335443 C23.02645726 -0.0344918 25.792486 -0.03816826 28.55851847 -0.0417164 C35.08227408 -0.04986851 41.60601588 -0.05229995 48.129776 -0.05158997 C54.86841617 -0.05098899 61.60697634 -0.0615429 68.34559625 -0.07733363 C74.12309839 -0.09039172 79.90057432 -0.09577459 85.67809111 -0.09513456 C89.13225428 -0.09487905 92.58634639 -0.09775885 96.04049492 -0.10831261 C99.89092537 -0.11975524 103.74124534 -0.1152574 107.59169006 -0.10920715 C108.74242004 -0.11482666 109.89315002 -0.12044617 111.07875061 -0.12623596 C112.64573952 -0.11994423 112.64573952 -0.11994423 114.24438477 -0.11352539 C115.155661 -0.11407016 116.06693724 -0.11461493 117.0058279 -0.1151762 C119.1856842 0.13371277 119.1856842 0.13371277 121.1856842 2.13371277 C120.9356842 4.69621277 120.9356842 4.69621277 120.1856842 7.13371277 C117.71634968 8.36838003 116.08944798 8.26225439 113.32704163 8.26742554 C112.30065582 8.27169052 111.27427002 8.27595551 110.21678162 8.28034973 C109.08632416 8.27989655 107.9558667 8.27944336 106.79115295 8.27897644 C105.01063034 8.28401436 105.01063034 8.28401436 103.19413757 8.28915405 C99.93388519 8.29704093 96.67367098 8.30033245 93.41341019 8.30096984 C90.69454641 8.30191824 87.97568877 8.30559565 85.25682735 8.30914193 C78.84476346 8.31728893 72.43271361 8.3197259 66.02064514 8.3190155 C59.39843118 8.31841427 52.77629856 8.32897453 46.15410519 8.34475917 C40.47424656 8.35781696 34.79441458 8.36320016 29.11454105 8.36256009 C25.7196371 8.36230463 22.32480544 8.36518218 18.92991638 8.37573814 C15.14661302 8.38547995 11.36352187 8.38268318 7.58021545 8.37663269 C6.449758 8.3822522 5.31930054 8.3878717 4.15458679 8.3936615 C2.61500809 8.38736977 2.61500809 8.38736977 1.04432678 8.38095093 C-0.29851631 8.38176808 -0.29851631 8.38176808 -1.66848755 8.38260174 C-3.8143158 8.13371277 -3.8143158 8.13371277 -5.8143158 6.13371277 C-6.0018158 3.57121277 -6.0018158 3.57121277 -5.8143158 1.13371277 C-4.16821718 -0.51238585 -2.26832941 0.0041732 0 0 Z " fill="#101112" transform="translate(60.81431579589844,152.8662872314453)" />
	<path d="M0 0 C1.55219994 -0.00845947 1.55219994 -0.00845947 3.13575745 -0.01708984 C4.27556564 -0.01304138 5.41537384 -0.00899292 6.58972168 -0.00482178 C7.78649033 -0.00832642 8.98325897 -0.01183105 10.21629333 -0.01544189 C13.50348268 -0.0227507 16.79042122 -0.02101706 20.07759666 -0.01468372 C23.51332315 -0.00962962 26.94903873 -0.01431353 30.38476562 -0.01745605 C36.15508962 -0.02109743 41.92536247 -0.01629214 47.69567871 -0.0067749 C54.37243197 0.00411001 61.04906309 0.00058455 67.72581339 -0.01042771 C73.4523875 -0.01949574 79.17892478 -0.02078825 84.90550375 -0.01555037 C88.32834469 -0.01242799 91.75112818 -0.01202864 95.17396545 -0.01862335 C98.98838063 -0.0254588 102.80265836 -0.01599196 106.61706543 -0.00482178 C107.75687363 -0.00887024 108.89668182 -0.0129187 110.07102966 -0.01708984 C111.6232296 -0.00863037 111.6232296 -0.00863037 113.20678711 0 C114.56069172 0.00113108 114.56069172 0.00113108 115.94194794 0.002285 C118.10339355 0.25396729 118.10339355 0.25396729 120.10339355 2.25396729 C119.547838 6.80952284 119.547838 6.80952284 118.10339355 8.25396729 C116.51374008 8.35210505 114.91972136 8.38028633 113.32704163 8.38095093 C111.77690369 8.38518066 111.77690369 8.38518066 110.19544983 8.38949585 C109.05204636 8.38747162 107.90864288 8.38544739 106.73059082 8.38336182 C105.5339682 8.38511414 104.33734558 8.38686646 103.10446167 8.38867188 C99.81314726 8.39233022 96.52189535 8.39145673 93.23058438 8.38829279 C89.79218538 8.38576836 86.35378912 8.38810701 82.91539001 8.38967896 C77.13910439 8.39150065 71.36283154 8.3890946 65.58654785 8.38433838 C58.90246226 8.37889833 52.21840717 8.38065654 45.53432232 8.38616478 C39.80353012 8.39069898 34.07274711 8.39134488 28.34195369 8.38872612 C24.91575968 8.3871647 21.48958002 8.38696583 18.06338692 8.3902626 C14.24410944 8.39368056 10.42486628 8.38894654 6.60559082 8.38336182 C5.46421158 8.38538605 4.32283234 8.38741028 3.14686584 8.38949585 C2.11062073 8.38667603 1.07437561 8.3838562 0.00672913 8.38095093 C-0.89717277 8.3805739 -1.80107466 8.38019688 -2.73236752 8.37980843 C-4.89660645 8.25396729 -4.89660645 8.25396729 -6.89660645 7.25396729 C-7.02160645 4.87896729 -7.02160645 4.87896729 -6.89660645 2.25396729 C-4.3640894 -0.27854976 -3.50755383 0.00293027 0 0 Z " fill="#101112" transform="translate(61.8966064453125,108.74603271484375)" />
	<path d="M0 0 C1.03342529 -0.00426498 2.06685059 -0.00852997 3.1315918 -0.01292419 C4.84669701 -0.01224442 4.84669701 -0.01224442 6.59645081 -0.0115509 C7.79307343 -0.01490952 8.98969604 -0.01826813 10.22257996 -0.02172852 C13.51389169 -0.02962422 16.80514035 -0.03290745 20.09645724 -0.0335443 C22.84012411 -0.03449181 25.58378486 -0.03816828 28.32744938 -0.0417164 C34.7984673 -0.04986848 41.26947131 -0.05229995 47.74049377 -0.05158997 C54.42460264 -0.050989 61.10863085 -0.06154286 67.7927193 -0.07733363 C73.52351273 -0.09039185 79.25427974 -0.09577459 84.98508793 -0.09513456 C88.41130565 -0.09487906 91.83745175 -0.09775867 95.26365471 -0.10831261 C99.0829524 -0.11975549 102.90213872 -0.11525733 106.72145081 -0.10920715 C108.43351967 -0.11763641 108.43351967 -0.11763641 110.18017578 -0.12623596 C111.73454346 -0.11994423 111.73454346 -0.11994423 113.3203125 -0.11352539 C114.22421439 -0.11407016 115.12811628 -0.11461493 116.05940914 -0.1151762 C118.22364807 0.13371277 118.22364807 0.13371277 120.22364807 2.13371277 C119.66809252 6.68926832 119.66809252 6.68926832 118.22364807 8.13371277 C116.63406897 8.23402422 115.04003447 8.26447135 113.44729614 8.26742554 C111.8971582 8.27382301 111.8971582 8.27382301 110.31570435 8.28034973 C108.60059914 8.27966995 108.60059914 8.27966995 106.85084534 8.27897644 C105.65422272 8.28233505 104.4576001 8.28569366 103.22471619 8.28915405 C99.93340446 8.29704976 96.64215579 8.30033299 93.3508389 8.30096984 C90.60717204 8.30191735 87.86351128 8.30559382 85.11984676 8.30914193 C78.64882884 8.31729402 72.17782483 8.31972549 65.70680237 8.3190155 C59.0226935 8.31841453 52.33866529 8.3289684 45.65457684 8.34475917 C39.92378341 8.35781738 34.19301641 8.36320012 28.46220821 8.36256009 C25.03599049 8.36230459 21.6098444 8.3651842 18.18364143 8.37573814 C14.36434374 8.38718103 10.54515742 8.38268286 6.72584534 8.37663269 C5.01377647 8.38506195 5.01377647 8.38506195 3.26712036 8.3936615 C1.71275269 8.38736977 1.71275269 8.38736977 0.12698364 8.38095093 C-1.22886919 8.38176808 -1.22886919 8.38176808 -2.612113 8.38260174 C-4.77635193 8.13371277 -4.77635193 8.13371277 -6.77635193 6.13371277 C-6.10097488 0.59562098 -5.42094107 0.01005468 0 0 Z " fill="#121314" transform="translate(61.77635192871094,239.8662872314453)" />
	<path d="M0 0 C1.38130679 0.00138269 1.38130679 0.00138269 2.79051876 0.00279331 C3.84366268 0.00141865 4.8968066 0.00004398 5.98186398 -0.00137234 C7.72973454 0.00402058 7.72973454 0.00402058 9.51291561 0.00952244 C10.73225796 0.00937641 11.9516003 0.00923038 13.20789242 0.00907993 C16.56105596 0.0096589 19.91415859 0.01468815 23.26731133 0.02165389 C26.76803646 0.027888 30.26876233 0.02849127 33.76949215 0.0296793 C40.4028774 0.03279245 47.03624625 0.04100561 53.66962427 0.05102879 C61.21968292 0.06219044 68.76974233 0.06770051 76.31980717 0.07272422 C91.85480791 0.08318824 107.38979227 0.10078736 122.92478085 0.12304783 C123.54978085 2.49804783 123.54978085 2.49804783 123.92478085 5.12304783 C121.92478085 7.12304783 121.92478085 7.12304783 119.74492455 7.3719368 C118.83364831 7.37139203 117.92237207 7.37084726 116.98348141 7.37028599 C115.93882214 7.37448048 114.89416286 7.37867496 113.81784725 7.38299656 C112.09175228 7.3745673 112.09175228 7.3745673 110.33078671 7.36596775 C109.1226582 7.3678661 107.91452969 7.36976444 106.66979122 7.37172031 C103.35167416 7.37479622 100.03380486 7.36890531 96.71571708 7.35876727 C93.24883117 7.34999909 89.78194962 7.35174396 86.31505489 7.35212803 C80.49345301 7.35119093 74.6719032 7.3425002 68.85031796 7.32885838 C62.11108908 7.31312499 55.37191721 7.3078605 48.6326713 7.30859393 C42.15922275 7.30920339 35.68579285 7.30410594 29.21234989 7.29580212 C26.45279005 7.29226347 23.69323681 7.29043804 20.93367481 7.28990841 C17.08555602 7.28872124 13.23748509 7.27902482 9.38938046 7.2683115 C8.23662624 7.26876469 7.08387203 7.26921787 5.89618587 7.26968479 C4.85434643 7.26541981 3.81250698 7.26115482 2.73909664 7.2567606 C1.82819743 7.25508475 0.91729822 7.25340891 -0.02120399 7.25168228 C-2.07521915 7.12304783 -2.07521915 7.12304783 -3.07521915 6.12304783 C-3.20021915 3.62304783 -3.20021915 3.62304783 -3.07521915 1.12304783 C-2.07521915 0.12304783 -2.07521915 0.12304783 0 0 Z " fill="#000102" transform="translate(58.07521915435791,196.87695217132568)" />
	<path d="M0 0 C1.04183945 -0.00426498 2.08367889 -0.00852997 3.15708923 -0.01292419 C4.88622055 -0.01224442 4.88622055 -0.01224442 6.65028381 -0.0115509 C8.4598481 -0.01658882 8.4598481 -0.01658882 10.30596924 -0.02172852 C13.62413946 -0.02962428 16.94224713 -0.03290746 20.26042247 -0.0335443 C23.02645726 -0.0344918 25.792486 -0.03816826 28.55851847 -0.0417164 C35.08227408 -0.04986851 41.60601588 -0.05229995 48.129776 -0.05158997 C54.86841617 -0.05098899 61.60697634 -0.0615429 68.34559625 -0.07733363 C74.12309839 -0.09039172 79.90057432 -0.09577459 85.67809111 -0.09513456 C89.13225428 -0.09487905 92.58634639 -0.09775885 96.04049492 -0.10831261 C99.89092537 -0.11975524 103.74124534 -0.1152574 107.59169006 -0.10920715 C108.74242004 -0.11482666 109.89315002 -0.12044617 111.07875061 -0.12623596 C112.64573952 -0.11994423 112.64573952 -0.11994423 114.24438477 -0.11352539 C115.155661 -0.11407016 116.06693724 -0.11461493 117.0058279 -0.1151762 C119.1856842 0.13371277 119.1856842 0.13371277 121.1856842 2.13371277 C120.64996992 5.66942705 120.64996992 5.66942705 119.1856842 7.13371277 C117.58111229 7.23188485 115.97221147 7.26003198 114.36463928 7.26069641 C113.32135468 7.26351624 112.27807007 7.26633606 111.20317078 7.26924133 C110.04884552 7.2672171 108.89452026 7.26519287 107.70521545 7.2631073 C106.49723297 7.26485962 105.28925049 7.26661194 104.04466248 7.26841736 C100.72242467 7.27207554 97.40024877 7.27120245 94.07801437 7.26803827 C90.60845097 7.26551429 87.13889029 7.26785232 83.66932678 7.26942444 C77.84176659 7.27124602 72.01421904 7.26884012 66.18666077 7.26408386 C59.44007128 7.25864126 52.69351201 7.26040393 45.94692326 7.26591027 C40.16434247 7.27044172 34.3817708 7.27109179 28.5991888 7.2684716 C25.14116864 7.266909 21.6831627 7.26671459 18.22514343 7.27000809 C14.37213457 7.27342116 10.51915981 7.26869654 6.66615295 7.2631073 C4.93466507 7.26614365 4.93466507 7.26614365 3.16819763 7.26924133 C1.60327072 7.2650116 1.60327072 7.2650116 0.00672913 7.26069641 C-0.9054689 7.26031939 -1.81766693 7.25994236 -2.75750732 7.25955391 C-4.8143158 7.13371277 -4.8143158 7.13371277 -5.8143158 6.13371277 C-5.9393158 3.63371277 -5.9393158 3.63371277 -5.8143158 1.13371277 C-4.16821718 -0.51238585 -2.26832941 0.0041732 0 0 Z " fill="#000102" transform="translate(60.81431579589844,65.86628723144531)" />
	<path d="M0 0 C1.67542976 0.28604898 3.34385343 0.61781233 5 1 C5.061875 1.61875 5.12375 2.2375 5.1875 2.875 C5.455625 3.57625 5.72375 4.2775 6 5 C6.7425 5.28875 7.485 5.5775 8.25 5.875 C11.90084851 7.36852894 14.19332943 9.53721474 16 13 C16.40457465 15.81179383 16.24663549 18.13902836 16 21 C13.625 21.625 13.625 21.625 11 22 C8.3534665 19.3534665 7.40058003 16.43778736 6 13 C4.72125 12.938125 3.4425 12.87625 2.125 12.8125 C1.40570313 12.77769531 0.68640625 12.74289062 -0.0546875 12.70703125 C-1.01761719 12.85205078 -1.01761719 12.85205078 -2 13 C-4.56687367 16.8503105 -3.83288724 18.58569763 -3 23 C-2.34773438 23.17015625 -1.69546875 23.3403125 -1.0234375 23.515625 C5.97515061 25.45623645 11.96392668 27.58840924 16 34 C16.91359376 38.91365291 16.59480043 43.5835296 14.1875 48 C12 51 12 51 9 53 C8.01 53 7.02 53 6 53 C5.67 54.65 5.34 56.3 5 58 C3.1875 58.6875 3.1875 58.6875 1 59 C-0.5 57.8125 -0.5 57.8125 -2 56 C-2.61875 55.38125 -3.2375 54.7625 -3.875 54.125 C-4.926875 53.073125 -4.926875 53.073125 -6 52 C-6.886875 51.278125 -7.77375 50.55625 -8.6875 49.8125 C-11.69292724 46.15725065 -12.36078286 42.70867883 -12 38 C-11.34 37.34 -10.68 36.68 -10 36 C-8.01171875 36.125 -8.01171875 36.125 -6 37 C-4.76953125 38.8125 -4.76953125 38.8125 -3.8125 41 C-2.71045539 43.70697055 -2.71045539 43.70697055 -1 46 C2.48055874 45.82432642 2.48055874 45.82432642 6 45 C8.15502531 41.76746204 8.46856135 40.74849077 8 37 C5.82276851 34.21042215 4.13006739 33.6125484 0.6875 33.125 C-4.19309768 32.17113726 -6.53341775 30.55113303 -10 27 C-12.70160495 22.54094961 -12.90240006 18.07211068 -12 13 C-10.01873326 9.42342758 -7.78096484 6.55260434 -3.796875 5.31640625 C-3.20390625 5.21199219 -2.6109375 5.10757812 -2 5 C-1.855625 4.360625 -1.71125 3.72125 -1.5625 3.0625 C-1 1 -1 1 0 0 Z " fill="#080808" transform="translate(392,400)" />
	<path d="M0 0 C0.80677689 0.00045319 1.61355377 0.00090637 2.44477844 0.00137329 C3.71301956 -0.00366463 3.71301956 -0.00366463 5.00688171 -0.00880432 C7.81635486 -0.01834386 10.6257686 -0.02025893 13.43525696 -0.02133179 C15.37959824 -0.02454226 17.32393927 -0.02790616 19.26828003 -0.03141785 C23.34974223 -0.03741662 27.43118323 -0.03925698 31.51264954 -0.03866577 C36.75316829 -0.0385641 41.9935517 -0.05221806 47.23403835 -0.06943798 C51.25136952 -0.08053405 55.26866772 -0.08258572 59.28601265 -0.08205605 C61.21858754 -0.08323972 63.15116318 -0.087683 65.08372307 -0.09538841 C67.78229741 -0.10514028 70.48057474 -0.10232941 73.17915344 -0.09628296 C73.9839061 -0.10190247 74.78865875 -0.10752197 75.61779785 -0.11331177 C81.14834778 -0.08167846 81.14834778 -0.08167846 83.37666321 2.14663696 C82.82110765 6.70219252 82.82110765 6.70219252 81.37666321 8.14663696 C78.67903859 8.25242687 76.006882 8.29341635 73.30854797 8.29190063 C72.04030685 8.29693855 72.04030685 8.29693855 70.7464447 8.30207825 C67.93697156 8.31161778 65.12755781 8.31353285 62.31806946 8.31460571 C60.37372818 8.31781618 58.42938715 8.32118009 56.48504639 8.32469177 C52.40358418 8.33069055 48.32214318 8.3325309 44.24067688 8.3319397 C39.00015812 8.33183803 33.75977471 8.34549198 28.51928806 8.36271191 C24.5019569 8.37380798 20.48465869 8.37585965 16.46731377 8.37532997 C14.53473888 8.37651364 12.60216324 8.38095693 10.66960335 8.38866234 C7.971029 8.39841421 5.27275168 8.39560334 2.57417297 8.38955688 C1.76942032 8.39517639 0.96466766 8.4007959 0.13552856 8.40658569 C-5.39502137 8.37495239 -5.39502137 8.37495239 -7.62333679 6.14663696 C-6.89175853 0.14769524 -5.89499364 0.03441685 0 0 Z " fill="#101112" transform="translate(165.6233367919922,424.8533630371094)" />
	<path d="M0 0 C0.80318161 0.00404846 1.60636322 0.00809692 2.43388367 0.01226807 C3.70234383 0.00701111 3.70234383 0.00701111 4.99642944 0.00164795 C7.80053337 -0.00717733 10.6043864 -0.00131743 13.40849304 0.00543213 C15.35140532 0.00408571 17.29431727 0.00214537 19.23722839 -0.00036621 C23.31274111 -0.00331855 27.38816627 0.00098371 31.46366882 0.01031494 C36.69632689 0.02170953 41.92877982 0.01515064 47.16143036 0.00317001 C51.17447973 -0.00404561 55.18748019 -0.00176203 59.20053101 0.0034256 C61.1303103 0.00476292 63.06009399 0.00311151 64.98986816 -0.00153351 C67.68356646 -0.00659387 70.37692921 0.00110451 73.07060242 0.01226807 C73.87378403 0.0082196 74.67696564 0.00417114 75.50448608 0 C81.02371483 0.04252892 81.02371483 0.04252892 83.25224304 2.27105713 C82.92224304 3.92105713 82.59224304 5.57105713 82.25224304 7.27105713 C52.88224304 7.27105713 23.51224304 7.27105713 -6.74775696 7.27105713 C-7.07775696 5.62105713 -7.40775696 3.97105713 -7.74775696 2.27105713 C-5.18401077 -0.29268906 -3.49524102 0.0269329 0 0 Z " fill="#000102" transform="translate(165.7477569580078,324.72894287109375)" />
	<path d="M0 0 C0.33 0 0.66 0 1 0 C1.09902133 5.74742629 1.17154082 11.49435392 1.21972656 17.24243164 C1.23981774 19.19694673 1.26709589 21.1514019 1.30175781 23.10571289 C1.35038601 25.91828208 1.3729936 28.73005527 1.390625 31.54296875 C1.41127014 32.41398727 1.43191528 33.2850058 1.45318604 34.18241882 C1.45471126 38.32445784 1.35028384 40.44148187 -0.89941406 44.02856445 C-3.72462154 46.68006961 -5.23901005 47.1262478 -9.00317383 47.19287109 C-9.82775589 47.20893402 -10.65233795 47.22499695 -11.50190735 47.24154663 C-15.27478199 47.28602528 -19.04748109 47.32706263 -22.82055664 47.35009766 C-24.80993347 47.36665551 -26.79925085 47.39394328 -28.78833008 47.43212891 C-31.65737755 47.48692264 -34.52503087 47.50877517 -37.39453125 47.5234375 C-38.28114944 47.54610687 -39.16776764 47.56877625 -40.08125305 47.59213257 C-44.57125894 47.57678953 -46.41102558 47.4564622 -50.06982422 44.62084961 C-52.16557778 41.7751736 -52.57082878 40.64910568 -52.3125 37.1875 C-52.26738281 36.39730469 -52.22226562 35.60710937 -52.17578125 34.79296875 C-52.11777344 34.20128906 -52.05976562 33.60960937 -52 33 C-51.37689941 33.32452148 -50.75379883 33.64904297 -50.11181641 33.98339844 C-45.78133162 35.39812766 -41.73858799 35.28587123 -37.2109375 35.265625 C-35.80057724 35.26849518 -35.80057724 35.26849518 -34.36172485 35.27142334 C-32.37981904 35.27278119 -30.39790422 35.26911274 -28.41601562 35.26074219 C-25.37870415 35.25001308 -22.34198093 35.26066338 -19.3046875 35.2734375 C-17.37760286 35.2721163 -15.45051859 35.26955474 -13.5234375 35.265625 C-12.61403412 35.26967346 -11.70463074 35.27372192 -10.76766968 35.27789307 C-9.50087875 35.26843658 -9.50087875 35.26843658 -8.20849609 35.25878906 C-7.46634857 35.25719788 -6.72420105 35.25560669 -5.95956421 35.25396729 C-3.67807443 35.10544063 -3.67807443 35.10544063 -1 33 C-0.66197325 30.45420623 -0.5112053 28.13850914 -0.48828125 25.5859375 C-0.47033005 24.85629791 -0.45237885 24.12665833 -0.43388367 23.37490845 C-0.37964868 21.04166465 -0.34584438 18.70862686 -0.3125 16.375 C-0.27933838 14.79424208 -0.2448498 13.21351139 -0.20898438 11.6328125 C-0.12391533 7.75535674 -0.05716822 3.87796345 0 0 Z " fill="#E1515F" transform="translate(114,394)" />
	<path d="M0 0 C4.68869667 3.5612323 7.35321385 6.31508399 9 12 C9.97653791 19.67667302 9.90507315 26.51529675 5.546875 33.1015625 C0.34031878 39.49142695 -5.40657868 43.33762116 -13.671875 44.31640625 C-19.93565545 44.58460679 -24.89130366 43.7614663 -30 40 C-31.6919239 38.35897926 -33.36312621 36.69593625 -35 35 C-34.03320312 35.05800781 -33.06640625 35.11601562 -32.0703125 35.17578125 C-22.47305123 35.50835961 -15.36078652 34.77079483 -7.94140625 28.16796875 C-0.46591356 20.28839537 0.34075975 13.44777515 0.10546875 2.78125 C0.05326172 1.40453125 0.05326172 1.40453125 0 0 Z " fill="#DEB44B" transform="translate(483,303)" />
	<path d="M0 0 C0.33 0 0.66 0 1 0 C1.67147105 7.98304468 0.93271142 13.54452542 -4 20 C-8.2610897 24.80122783 -13.74632423 27.32139803 -20.0078125 28.3203125 C-25.39936895 28.63746288 -29.63073153 27.13087302 -34 24 C-39.04227287 19.25491413 -42.85632198 14.80746763 -43.125 7.6875 C-43.063125 6.3571875 -43.063125 6.3571875 -43 5 C-42.55269531 5.39832031 -42.10539062 5.79664063 -41.64453125 6.20703125 C-33.56263513 13.28946048 -28.04405758 15.37791756 -17.265625 15.28125 C-11.25848633 14.76388877 -7.65417739 12.33742002 -3.0625 8.625 C-0.73554645 5.66342276 -0.25932732 3.71702491 0 0 Z " fill="#525963" transform="translate(327,129)" />
	<path d="M0 0 C3.68069887 1.53643852 5.98775204 3.78150945 8.75 6.625 C9.54921875 7.44226563 10.3484375 8.25953125 11.171875 9.1015625 C11.77515625 9.72804687 12.3784375 10.35453125 13 11 C11.53033642 14.39859703 9.61962486 16.64963709 7 19.25 C6.29875 19.95640625 5.5975 20.6628125 4.875 21.390625 C3 23 3 23 1 23 C-0.5859375 21.35546875 -0.5859375 21.35546875 -2.375 19.1875 C-4.7171919 16.35520187 -6.98186585 14.10737561 -10 12 C-8.43873668 8.16780823 -5.97133075 5.82638778 -3 3 C-2.401875 2.401875 -1.80375 1.80375 -1.1875 1.1875 C-0.795625 0.795625 -0.40375 0.40375 0 0 Z " fill="#F5F5F5" transform="translate(389,234)" />
	<path d="M0 0 C0.99 0.33 1.98 0.66 3 1 C1.37660195 2.70884005 -0.29319053 4.37446717 -2 6 C-2.66 6 -3.32 6 -4 6 C-2.25 1.125 -2.25 1.125 0 0 Z " fill="#E297A4" transform="translate(66,389)" />
</svg>
