<svg width="161" height="136" viewBox="0 0 161 136" fill="none" xmlns="http://www.w3.org/2000/svg">
<circle opacity="0.3" cx="74.4654" cy="64.8023" r="57.2617" stroke="#FF4231" stroke-width="3.08134"/>
<g filter="url(#filter0_d_4001_119)">
<circle cx="74.4659" cy="64.8024" r="44.7521" fill="white"/>
</g>
<path d="M77.5418 68.646V49.1252C77.5418 47.4453 76.18 46.0835 74.5002 46.0835C72.8203 46.0835 71.4585 47.4453 71.4585 49.1252V68.646C71.4585 70.3259 72.8203 71.6877 74.5002 71.6877C76.18 71.6877 77.5418 70.3259 77.5418 68.646ZM71.4585 80.8376C71.4585 82.5197 72.8221 83.8833 74.5042 83.8833C76.1864 83.8833 77.55 82.5197 77.55 80.8376C77.55 79.1555 76.1864 77.7918 74.5042 77.7918C72.8221 77.7918 71.4585 79.1555 71.4585 80.8376Z" fill="#FF4231" stroke="#FF4231" stroke-width="2"/>
<circle opacity="0.2" cx="145.978" cy="27.3383" r="2.69617" fill="#FF4231"/>
<circle opacity="0.3" cx="14.2512" cy="119.779" r="3.46651" fill="#FF4231"/>
<circle opacity="0.6" cx="7.31818" cy="17.324" r="7.31818" fill="#FF4231"/>
<circle opacity="0.4" cx="156.378" cy="92.4316" r="4.62201" fill="#FF4231"/>
<defs>
<filter id="filter0_d_4001_119" x="6.60382" y="0.0215845" width="135.724" height="135.724" filterUnits="userSpaceOnUse" color-interpolation-filters="sRGB">
<feFlood flood-opacity="0" result="BackgroundImageFix"/>
<feColorMatrix in="SourceAlpha" type="matrix" values="0 0 0 0 0 0 0 0 0 0 0 0 0 0 0 0 0 0 127 0" result="hardAlpha"/>
<feOffset dy="3.08134"/>
<feGaussianBlur stdDeviation="11.555"/>
<feComposite in2="hardAlpha" operator="out"/>
<feColorMatrix type="matrix" values="0 0 0 0 0 0 0 0 0 0 0 0 0 0 0 0 0 0 0.1 0"/>
<feBlend mode="normal" in2="BackgroundImageFix" result="effect1_dropShadow_4001_119"/>
<feBlend mode="normal" in="SourceGraphic" in2="effect1_dropShadow_4001_119" result="shape"/>
</filter>
</defs>
</svg>
