<svg width="18" height="16" viewBox="0 0 18 16" fill="none" xmlns="http://www.w3.org/2000/svg">
<path d="M14.76 9.44005C13.7612 8.22911 12.3515 7.4282 10.8 7.19005L13.86 10.25L14.76 9.44005ZM17.1 6.56005C15.8707 5.06914 14.3425 3.94543 12.6485 3.28665C10.9545 2.62787 9.14592 2.45396 7.37999 2.78005L8.99999 4.40005C10.2846 4.4419 11.5449 4.76118 12.6945 5.33598C13.8441 5.91077 14.8558 6.72748 15.66 7.73005L17.1 6.56005ZM3.14999 0.800049L1.79999 2.06005L3.77999 4.04005C2.68916 4.7176 1.71635 5.56881 0.899994 6.56005L2.24999 7.73005C3.04921 6.77071 4.02737 5.97596 5.12999 5.39005L7.19999 7.37005C6.03568 7.7683 5.00661 8.48553 4.22999 9.44005L5.48999 10.7C5.87902 10.1952 6.36707 9.77515 6.92421 9.46563C7.48135 9.15611 8.09583 8.96365 8.72999 8.90005L14.85 15.2L16.2 13.85L3.14999 0.800049Z" fill="#FF4231"/>
</svg>
